<svg width="174" height="48" viewBox="0 0 174 48" fill="none" xmlns="http://www.w3.org/2000/svg">
<path fill-rule="evenodd" clip-rule="evenodd" d="M53.7887 0.272186C55.263 -0.0563717 56.7373 -0.0563717 58.2116 0.107907C59.8824 0.354326 61.455 0.765024 62.831 1.50428C62.831 2.57209 62.831 3.63991 62.831 4.70772C61.9465 4.13274 61.0619 3.63991 59.9807 3.31135C58.6047 2.81851 57.1304 2.65423 55.7544 2.73637C55.0664 2.81851 54.3784 2.90065 53.7887 3.22921C53.3955 3.39349 53.0024 3.72205 52.8058 4.0506C52.5109 4.4613 52.5109 4.95414 52.6092 5.44698C52.7075 5.85767 53.0024 6.26837 53.3955 6.51479C53.8869 6.84335 54.575 7.08977 55.1647 7.25405C56.4424 7.66474 57.7201 8.07544 59.0961 8.404C60.1773 8.73256 61.2585 9.2254 62.143 9.88251C63.0276 10.5396 63.6173 11.361 63.8139 12.2646C64.0105 13.2502 64.1088 14.2359 63.8139 15.1394C63.519 15.9608 62.9293 16.7822 62.143 17.3572C61.2585 18.0143 60.2756 18.425 59.1944 18.6714C57.7201 19 56.1475 19.0821 54.6732 18.9179C52.8058 18.7536 50.8401 18.2607 49.2675 17.3572C49.2675 16.2894 49.2675 15.1394 49.2675 14.0716C51.1349 15.3859 53.5921 16.2073 56.0493 16.2073C57.1304 16.2073 58.2116 16.1251 59.0961 15.7144C59.5876 15.468 60.079 15.1394 60.2756 14.6466C60.4722 14.1538 60.4722 13.5788 60.2756 13.0038C60.079 12.511 59.5876 12.1003 58.9979 11.8539C58.015 11.361 56.9338 11.1146 55.8527 10.786C54.575 10.3753 53.2972 10.0468 52.1178 9.47181C51.2332 9.06112 50.3486 8.48614 49.8572 7.74688C49.0709 6.76121 48.8743 5.52912 49.0709 4.37916C49.1692 3.31135 49.8572 2.24354 50.7418 1.58642C51.6264 0.929303 52.7075 0.518605 53.7887 0.272186Z" fill="#A4A4A4"/>
<path fill-rule="evenodd" clip-rule="evenodd" d="M139.473 1.07045C140.941 0.247027 142.801 0 144.563 0C146.717 0 148.969 0.494053 150.829 1.48216C150.829 2.55261 150.829 3.62306 150.829 4.69351C150.045 4.19945 149.164 3.7054 148.283 3.37603C146.717 2.79964 144.955 2.55261 143.193 2.79964C142.312 2.96432 141.333 3.29369 140.843 3.95243C140.354 4.77585 140.55 5.8463 141.333 6.42269C141.92 6.91675 142.801 7.16377 143.584 7.32846C144.857 7.74017 146.13 8.06954 147.402 8.48125C148.577 8.89296 149.654 9.38701 150.437 10.1281C151.22 10.7868 151.71 11.6926 151.905 12.5984C152.101 13.5865 152.003 14.6569 151.514 15.645C151.122 16.4684 150.437 17.1272 149.556 17.7036C148.577 18.28 147.402 18.6093 146.13 18.8564C144.465 19.1034 142.703 19.0211 141.039 18.6917C139.669 18.4447 138.298 18.0329 137.123 17.2919C137.123 16.2214 137.123 15.0686 137.123 13.9982C138.592 14.9863 140.354 15.7274 142.312 15.9744C143.095 16.1391 143.976 16.1391 144.759 16.0567C145.64 15.9744 146.423 15.892 147.207 15.4803C147.794 15.151 148.185 14.7393 148.283 14.1629C148.381 13.5041 148.283 12.763 147.794 12.269C147.304 11.8573 146.717 11.5279 146.032 11.2809C144.955 10.9515 143.976 10.6221 142.899 10.2928C141.92 9.96341 140.843 9.71638 139.962 9.22233C139.081 8.81062 138.298 8.23422 137.809 7.49314C137.319 6.75206 137.025 5.92864 137.025 5.10522C136.928 4.36414 137.123 3.62306 137.417 2.88198C137.809 2.30558 138.592 1.5645 139.473 1.07045Z" fill="#A4A4A4"/>
<path fill-rule="evenodd" clip-rule="evenodd" d="M163.188 0.49943C164.26 0.166477 165.331 0 166.403 0C168.643 0 170.883 0.416192 172.831 1.41505C172.929 1.41505 172.929 1.49829 172.929 1.58153C172.929 2.66363 172.929 3.66249 172.929 4.74459C172.052 4.16192 171.078 3.66249 170.104 3.32953C168.838 2.91334 167.377 2.66363 166.013 2.74687C165.331 2.8301 164.552 2.91334 163.968 3.2463C163.481 3.49601 163.091 3.82896 162.896 4.16192C162.506 4.9943 162.701 5.99316 163.481 6.49259C164.357 7.07526 165.429 7.32498 166.5 7.65793C167.669 8.07412 168.935 8.40708 170.104 8.82327C171.175 9.23946 172.247 9.82213 172.929 10.6545C173.708 11.5701 174 12.6522 174 13.7343C174 14.7332 173.708 15.7321 173.123 16.4812C172.442 17.3136 171.565 17.8962 170.494 18.3124C169.325 18.7286 168.156 18.9783 166.89 18.9783C165.526 19.0616 164.162 18.8951 162.799 18.6454C161.532 18.3957 160.364 17.9795 159.292 17.3968C159.292 16.3147 159.292 15.1494 159.292 14.0673C161.143 15.3991 163.578 16.2315 166.013 16.2315C167.084 16.2315 168.156 16.1482 169.13 15.7321C169.617 15.4823 170.006 15.1494 170.201 14.65C170.396 14.1505 170.396 13.4846 170.201 12.9852C170.006 12.4858 169.519 12.0696 168.935 11.8198C167.961 11.3204 166.89 11.0707 165.818 10.7377C164.552 10.3216 163.286 9.9886 162.117 9.40594C161.143 8.98974 160.364 8.32384 159.779 7.49145C159.195 6.65907 159 5.57697 159 4.57811C159 3.66249 159.39 2.74687 160.071 1.99772C160.948 1.41505 162.019 0.832384 163.188 0.49943Z" fill="#A4A4A4"/>
<path fill-rule="evenodd" clip-rule="evenodd" d="M88 0C92.8063 4.22414 97.6126 8.44828 102.513 12.6724C102.513 8.53448 102.513 4.48276 102.513 0.344828C103.644 0.344828 104.775 0.344828 106 0.344828C106 6.89655 106 13.4483 106 20C102.796 17.069 99.4974 14.2241 96.199 11.2931C94.5969 9.91379 93.089 8.53448 91.4869 7.15517C91.4869 11.2931 91.4869 15.5172 91.4869 19.6552C90.356 19.6552 89.2251 19.6552 88 19.6552C88 13.1034 88 6.55172 88 0Z" fill="#A4A4A4"/>
<path fill-rule="evenodd" clip-rule="evenodd" d="M0 0.0135015C1.98313 0.0135015 3.86711 0.0135015 5.85025 0.0135015C7.23844 0.0135015 8.62664 -0.0708829 9.91567 0.18227C11.2047 0.351039 12.4937 0.772961 13.4853 1.53242C14.2786 2.12311 14.8735 2.96696 15.0718 3.8108C15.3693 4.82341 15.3693 5.83603 14.9727 6.84864C14.576 7.86125 13.6836 8.78948 12.4937 9.21141C12.6921 9.29579 12.8904 9.38017 13.0887 9.46456C14.1794 9.97087 15.0718 10.8147 15.5676 11.7429C15.9642 12.5024 16.0634 13.2619 15.9642 14.1057C15.8651 15.1183 15.4685 16.1309 14.6752 16.9748C13.7828 17.903 12.4937 18.4937 11.2047 18.7468C10.0148 19 8.92411 19 7.73423 19C5.15615 19 2.57808 19 0 19C0 12.5868 0 6.25795 0 0.0135015ZM3.6688 2.79819C3.6688 4.48588 3.6688 6.25795 3.6688 7.94564C5.15615 7.94564 6.6435 7.94564 8.13085 7.94564C9.02326 7.94564 10.114 7.77687 10.8081 7.18618C11.3039 6.76426 11.6013 6.17357 11.7005 5.58287C11.7997 4.9078 11.6013 4.23272 11.1056 3.72642C10.6098 3.22011 9.91567 3.05134 9.22158 2.88257C8.52748 2.79819 7.73423 2.79819 6.94097 2.79819C5.85025 2.79819 4.75952 2.79819 3.6688 2.79819ZM3.6688 10.5616C3.6688 12.418 3.6688 14.2745 3.6688 16.0465C5.25531 16.0465 6.84182 16.0465 8.42832 16.0465C9.32073 16.0465 10.2131 15.8778 11.0064 15.4559C11.7005 15.1183 12.0971 14.5276 12.1963 13.8525C12.3946 13.1775 12.2954 12.418 11.7997 11.7429C11.403 11.2366 10.8081 10.8991 10.2131 10.7303C9.6182 10.5616 9.02326 10.4772 8.32917 10.4772C6.84181 10.5616 5.25531 10.5616 3.6688 10.5616Z" fill="#A4A4A4"/>
<path fill-rule="evenodd" clip-rule="evenodd" d="M24 0C25.2278 0 26.3611 0 27.5889 0C27.5889 3.41743 27.5889 6.74724 27.5889 10.1647C27.5889 11.3914 27.4944 12.5306 27.8722 13.7574C28.1556 14.7213 28.6278 15.5975 29.4778 16.2109C30.3278 16.8243 31.3667 16.9995 32.5 16.9995C33.5389 16.9995 34.6722 16.8243 35.5222 16.2109C36.2778 15.6851 36.75 14.9841 37.0333 14.1955C37.3167 13.2316 37.4111 12.2677 37.4111 11.3038C37.4111 7.53588 37.4111 3.76794 37.4111 0.0876265C38.6389 0.0876265 39.7722 0.0876265 41 0.0876265C41 4.03082 41 7.88639 41 11.8296C41 13.4069 40.7167 15.0718 39.8667 16.4738C39.1111 17.7006 37.9778 18.7521 36.5611 19.2778C34.9556 19.8912 33.1611 20.0665 31.4611 19.9788C30.2333 19.8912 29.1 19.6283 27.9667 19.1026C27.2111 18.7521 26.4556 18.2263 25.8889 17.5253C25.2278 16.8243 24.7556 15.8604 24.4722 14.9841C24.0944 13.9326 24 12.7935 24 11.742C24 7.71113 24 3.85557 24 0Z" fill="#A4A4A4"/>
<path fill-rule="evenodd" clip-rule="evenodd" d="M73 0C74.3684 0 75.6316 0 77 0C77 6.36161 77 12.6384 77 19C75.6316 19 74.3684 19 73 19C73 12.6384 73 6.27679 73 0Z" fill="#A4A4A4"/>
<path fill-rule="evenodd" clip-rule="evenodd" d="M116.042 0C120.33 0 124.617 0 129 0C129 0.933036 129 1.95089 129 2.88393C125.856 2.88393 122.712 2.88393 119.663 2.88393C119.663 4.41071 119.663 5.9375 119.663 7.46429C122.426 7.46429 125.284 7.46429 128.047 7.46429C128.047 8.39732 128.047 9.33036 128.047 10.2634C125.284 10.2634 122.426 10.2634 119.663 10.2634C119.663 12.2143 119.663 14.1652 119.663 16.1161C122.807 16.1161 125.951 16.1161 129 16.1161C129 17.0491 129 18.067 129 19C124.713 19 120.425 19 116.042 19C116.042 13.8259 116.042 8.73661 116.042 3.5625C116.042 2.375 115.947 1.1875 116.042 0Z" fill="#A4A4A4"/>
<path fill-rule="evenodd" clip-rule="evenodd" d="M29.0394 29C33.8859 33.0176 38.7324 37.0352 43.5789 41.0529C43.5789 37.1189 43.5789 33.185 43.5789 29.2511C44.7193 29.2511 45.8596 29.2511 47 29.2511C47 35.5286 47 41.7225 47 48C42.1535 43.8987 37.307 39.7974 32.5555 35.696C32.5555 39.7137 32.5555 43.6476 32.5555 47.6652C31.4151 47.6652 30.2748 47.6652 29.1344 47.6652C29.0394 41.4714 28.9443 35.1938 29.0394 29Z" fill="#A4A4A4"/>
<path fill-rule="evenodd" clip-rule="evenodd" d="M59.2843 29.685C60.6697 29.1032 62.2529 28.937 63.8362 29.0201C65.9143 29.1032 67.9924 29.5188 69.7736 30.5161C69.7736 31.5966 69.7736 32.6771 69.7736 33.7576C68.883 33.1758 67.9924 32.6771 66.9038 32.3446C65.5185 31.8459 64.0341 31.6797 62.6488 31.7628C61.9561 31.8459 61.2634 31.9291 60.6697 32.2615C60.1749 32.5108 59.878 32.8433 59.6801 33.2589C59.3832 34.0069 59.5811 34.838 60.1749 35.3367C60.6697 35.7523 61.3623 36.0016 62.055 36.251C63.3415 36.6665 64.7268 37.0821 66.0132 37.4146C67.1018 37.747 68.0913 38.1626 68.9819 38.7444C69.8725 39.3262 70.4662 40.1573 70.7631 41.0716C71.06 41.9858 71.06 42.9001 70.8621 43.8974C70.6642 44.8117 70.0704 45.6428 69.2788 46.2246C68.4871 46.8895 67.3986 47.3051 66.3101 47.6376C64.9247 47.97 63.5394 48.0531 62.055 47.97C60.5707 47.8869 59.0864 47.6376 57.8 47.1389C57.2062 46.8895 56.6125 46.7233 56.1177 46.3909C56.1177 45.3104 56.1177 44.2299 56.1177 43.1494C57.9979 44.4792 60.4717 45.2273 62.9456 45.3104C64.0341 45.3104 65.1227 45.2273 66.0132 44.8117C66.607 44.5624 67.0028 44.1468 67.2007 43.6481C67.3986 43.1494 67.3986 42.5676 67.1018 42.0689C66.9039 41.5703 66.3101 41.1547 65.8153 40.9053C64.8258 40.4898 63.8362 40.1573 62.7477 39.908C61.5603 39.5755 60.3728 39.2431 59.2843 38.7444C58.2947 38.3288 57.4041 37.6639 56.8104 36.9159C56.2167 36.0847 55.9198 35.0874 56.0188 34.1731C56.0188 33.2589 56.3156 32.3446 56.9094 31.5966C57.4041 30.5992 58.2947 30.0174 59.2843 29.685Z" fill="#A4A4A4"/>
<path fill-rule="evenodd" clip-rule="evenodd" d="M15 29C16.0263 29 16.9737 29 18 29C18 35.362 18 41.638 18 48C16.9737 48 16.0263 48 15 48C15 41.638 15 35.362 15 29Z" fill="#A4A4A4"/>
<path fill-rule="evenodd" clip-rule="evenodd" d="M80 29C81.3684 29 82.6316 29 84 29C84 35.362 84 41.638 84 48C82.6316 48 81.3684 48 80 48C80 41.638 80 35.362 80 29Z" fill="#A4A4A4"/>
<path fill-rule="evenodd" clip-rule="evenodd" d="M94.0983 29C96.9504 29 99.8025 29 102.655 29C104.917 29 107.179 29.5158 108.949 30.7195C110.522 31.6652 111.604 33.0407 112.293 34.5882C112.784 35.8778 113.08 37.2534 112.981 38.629C112.981 40.6063 112.489 42.5837 111.211 44.2172C110.227 45.5928 108.654 46.7104 106.884 47.3122C105.507 47.8281 104.031 48 102.556 48C99.7042 48 96.8521 48 94 48C94.0983 41.638 94.0983 35.362 94.0983 29ZM97.8356 31.8371C97.8356 36.2217 97.8356 40.6923 97.8356 45.0769C99.0157 45.0769 100.196 45.0769 101.376 45.0769C102.065 45.0769 102.851 45.0769 103.54 44.991C104.917 44.819 106.293 44.3891 107.277 43.5294C108.162 42.8416 108.752 41.81 109.047 40.7783C109.342 39.7466 109.441 38.7149 109.342 37.6833C109.244 36.7376 109.047 35.7919 108.556 34.9321C108.162 34.0724 107.474 33.3846 106.589 32.8688C105.605 32.267 104.425 31.9231 103.245 31.8371C102.556 31.7511 101.769 31.8371 101.081 31.7511C99.9992 31.8371 98.9174 31.8371 97.8356 31.8371Z" fill="#A4A4A4"/>
<path fill-rule="evenodd" clip-rule="evenodd" d="M121 29C125.333 29 129.667 29 134 29C134 29.95 134 30.9 134 31.85C130.822 31.85 127.741 31.85 124.563 31.85C124.563 33.4045 124.563 34.8727 124.563 36.4273C127.356 36.4273 130.148 36.4273 132.941 36.4273C132.941 37.3773 132.941 38.3273 132.941 39.2773C130.148 39.2773 127.356 39.2773 124.563 39.2773C124.563 41.2636 124.563 43.25 124.563 45.15C127.741 45.15 130.822 45.15 134 45.15C134 46.1 134 47.05 134 48C129.667 48 125.333 48 121 48C121 41.6955 121 35.3909 121 29Z" fill="#A4A4A4"/>
<path fill-rule="evenodd" clip-rule="evenodd" d="M145 29C147.587 29 150.082 29 152.668 29C153.962 29 155.255 29.1719 156.364 29.7738C157.288 30.2036 158.027 30.8054 158.582 31.5792C159.228 32.5249 159.505 33.6425 159.413 34.7602C159.413 35.8778 159.228 37.0814 158.582 38.0272C158.12 38.8009 157.38 39.3167 156.549 39.6606C155.902 39.9186 155.255 40.0905 154.609 40.1765C157.103 42.7557 159.505 45.3348 162 48C160.707 48 159.321 48 158.027 48C155.625 45.4208 153.315 42.8416 150.913 40.3484C150.082 40.3484 149.25 40.3484 148.511 40.3484C148.511 42.9276 148.511 45.5068 148.511 48C147.31 48 146.201 48 145 48C145 41.638 145 35.362 145 29ZM148.511 31.8371C148.511 33.7285 148.511 35.7059 148.511 37.5973C149.897 37.5973 151.19 37.5973 152.576 37.5973C153.5 37.5973 154.424 37.3394 155.163 36.7376C155.625 36.3077 155.902 35.7919 155.995 35.19C156.087 34.5023 155.995 33.6425 155.533 33.0407C155.163 32.4389 154.424 32.095 153.685 31.9231C152.946 31.7511 152.207 31.7511 151.467 31.7511C150.451 31.8371 149.527 31.8371 148.511 31.8371Z" fill="#A4A4A4"/>
</svg>
