<svg width="207" height="54" viewBox="0 0 207 54" fill="none" xmlns="http://www.w3.org/2000/svg">
<path d="M99.9929 14.6194C98.2631 14.6194 97.3146 14.7868 95.9196 15.4564C93.3528 16.6282 91.4556 18.5254 89.7816 21.5944L89.2236 22.543L89.2794 20.8132C89.3352 19.8646 89.391 18.1348 89.4468 16.9072L89.5026 14.731H89.112C88.6656 14.731 73.9345 17.6884 73.4881 17.8558C73.2091 17.9674 73.1534 18.079 73.1534 18.8044C73.1534 19.5298 73.2091 19.6414 73.4881 19.6972C73.6555 19.753 74.3251 19.8646 74.9947 19.9762C76.2781 20.1994 76.6687 20.4226 77.2267 21.148C78.2311 22.4314 78.3985 24.775 78.3985 34.5399C78.3985 42.5192 78.2311 46.5368 77.8405 47.7644C77.3941 49.271 76.5571 50.0522 75.1063 50.3312C74.6599 50.4428 74.0461 50.5544 73.7671 50.6102L73.2649 50.7218L73.2091 51.7262C73.1533 52.4516 73.2091 52.7864 73.3765 52.898C73.4881 52.9538 78.5101 53.0096 84.5365 53.0096L95.529 52.9537L95.5848 51.782C95.5848 51.1682 95.5848 50.6102 95.529 50.6102C94.692 50.6102 92.0694 50.2754 91.623 50.0522C90.3954 49.55 89.7816 48.434 89.5026 46.1462C89.2236 43.5236 89.0004 36.8835 89.112 31.5267C89.2236 26.0584 89.2236 26.0584 89.5584 25.6678C90.3396 24.8308 92.3484 24.1612 94.1898 24.1612C95.6406 24.1612 97.1472 24.5518 98.7095 25.2772C99.4907 25.6678 100.16 25.891 100.272 25.891C100.495 25.8352 104.066 16.2934 104.066 15.847C104.066 15.289 102.002 14.6194 99.9929 14.6194Z" fill="#A4A4A4"/>
<path d="M73.2091 31.1921C72.428 24.6078 69.638 19.809 65.0066 17.0748C59.8731 14.0616 52.1169 13.8942 46.5928 16.6842C42.5752 18.693 39.3388 22.5432 37.888 27.0071C36.3814 31.5827 36.3814 37.6091 37.888 42.2404C38.8366 45.2536 40.12 47.4298 42.1288 49.3828C44.5282 51.7821 47.653 53.2887 51.2799 53.7909C52.5633 53.9583 56.6367 53.9583 57.9759 53.7909C58.5897 53.6793 59.7057 53.4561 60.3752 53.2887C66.9038 51.3915 71.3678 46.3696 72.8744 39.2272C73.265 37.4417 73.4323 33.2009 73.2091 31.1921ZM56.6925 50.9451C52.6191 52.1727 49.7175 48.2668 48.6015 40.1758C48.2109 37.5533 48.2667 30.4109 48.6015 27.4535C49.3827 20.925 51.3915 17.6328 54.5721 17.6328C56.0229 17.6328 56.8041 17.9676 57.9201 19.0836C60.5985 21.762 61.826 26.8955 61.826 34.9307C61.826 41.3476 61.1564 45.3652 59.7615 48.0994C59.0361 49.3828 57.7527 50.6104 56.6925 50.9451Z" fill="#A4A4A4"/>
<path d="M19.6416 4.96613H24.3287C29.6855 4.96613 30.5783 5.07773 32.4755 6.02632C35.2096 7.36551 37.2184 10.0439 39.004 14.7311C39.7294 16.6282 39.7294 16.6282 41.2918 16.126L42.352 15.7912L42.2404 8.9279C42.1846 5.13353 42.1288 1.78555 42.073 1.50656L41.9614 0.892761H21.4829C10.2114 0.892761 0.781309 0.892761 0.502311 0.948561L0.000115288 1.00436L0.0559149 2.23195L0.111714 3.45954L1.6741 3.62694C3.68289 3.85014 4.85468 4.40813 5.58007 5.46833C7.19826 7.81191 7.47726 11.0483 7.47726 26.2816C7.47726 42.5192 7.14246 46.481 5.58007 48.4898C4.79888 49.55 4.12928 49.8848 2.2879 50.2196C-0.0556843 50.7218 0.000115288 50.666 0.000115288 51.8936C0.000115288 52.5632 0.0559149 52.9538 0.167514 53.0096C0.446512 53.1212 26.6165 53.1212 26.8955 53.0096C27.2303 52.898 27.2303 50.945 26.8955 50.7776C26.7281 50.7218 25.8911 50.5544 24.9425 50.387C23.9939 50.2196 22.9895 49.9964 22.6547 49.8848C20.925 49.1594 19.9764 47.0948 19.6416 43.3562C19.3626 40.6779 19.1952 35.7117 19.1952 32.0847V28.7367L20.8134 28.7925C24.2171 28.9041 25.9469 29.0715 26.6723 29.4063C28.2347 30.0759 29.4623 31.9731 30.0761 34.6515L30.4109 36.0465L31.6385 36.1023L32.8661 36.1581V18.3022L31.6385 18.358L30.4109 18.4138L30.0761 19.8088C29.4065 22.543 28.2905 24.217 26.6165 24.9982C25.9469 25.333 25.4447 25.3888 23.8823 25.5004C22.8221 25.5562 21.3156 25.612 20.5902 25.612H19.1952V21.2038C19.1952 16.7956 19.4184 7.36551 19.5858 5.91472L19.6416 4.96613Z" fill="#A4A4A4"/>
<path d="M205.51 36.437C204.282 33.9261 201.939 32.2521 197.14 30.2433C193.234 28.6251 191.225 27.4533 190.053 26.1699C189.049 25.1097 188.77 24.2169 188.882 22.6545C188.993 21.2038 189.328 20.311 190.277 19.3066C191.448 18.0232 193.122 17.5768 195.075 18.0232C198.256 18.6928 200.321 20.9248 202.106 25.6119C202.72 27.2859 202.832 27.3417 203.948 26.8953L204.673 26.6163V24.6633C204.673 23.6031 204.617 21.3712 204.561 19.6972L204.45 16.684L203.892 16.4608C200.934 15.2332 195.354 14.452 191.727 14.7868C187.598 15.1774 184.529 16.4608 182.186 18.916C179.842 21.3154 178.782 24.1611 179.005 27.5091C179.173 30.2991 179.954 32.2521 181.684 34.0377C183.246 35.6558 184.585 36.437 188.435 37.9436C194.573 40.343 196.247 41.7938 196.191 44.7512C196.191 47.2622 194.852 49.1035 192.453 49.9405C191.56 50.2195 189.384 50.2195 188.212 49.9405C185.143 49.1593 182.799 46.481 180.791 41.5706L180.289 40.2872L179.675 40.343C179.34 40.343 178.894 40.4546 178.67 40.5662L178.28 40.7894L178.336 42.9656C178.336 44.1374 178.391 46.6484 178.447 48.4897L178.559 51.8935L179.228 52.1725C180.623 52.7863 184.864 53.6791 187.487 53.9581C187.821 54.0139 189.607 54.0139 191.504 53.9581C194.741 53.9023 195.02 53.9023 196.638 53.4559C201.492 52.1725 204.617 49.4941 206.012 45.4208C206.459 44.1374 206.514 43.8026 206.57 41.9054C206.514 39.3386 206.291 38.0552 205.51 36.437Z" fill="#A4A4A4"/>
<path d="M168.068 16.126C163.995 14.0614 157.69 14.2288 153.114 16.4608C148.762 18.5812 145.749 22.1524 144.075 27.1743C143.182 29.7969 142.903 31.8615 143.014 35.2653C143.07 37.3856 143.182 38.5016 143.405 39.506C145.135 47.2064 150.38 52.3957 157.745 53.7349C159.364 54.0139 163.046 54.0139 164.665 53.7349C167.008 53.3443 169.687 52.2841 171.416 51.1123C173.481 49.7173 175.601 47.597 175.601 46.9274C175.601 46.5368 174.876 45.5882 174.597 45.5882C174.485 45.5882 173.872 45.8672 173.314 46.2578C171.305 47.597 169.352 48.0992 166.618 48.0992C162.879 48.0992 160.535 47.1506 158.136 44.7512C157.076 43.691 156.629 43.133 156.127 42.0728C154.955 39.785 154.286 37.1066 154.174 34.0935L154.119 32.8101L165.111 32.7543L176.104 32.6985L176.159 31.9731C176.159 31.5825 176.159 30.5223 176.048 29.5737C175.378 23.0452 172.644 18.4696 168.068 16.126ZM157.02 29.6853L154.23 29.7411V29.1273C154.23 28.7925 154.342 27.8997 154.453 27.1743C155.402 21.2038 157.634 17.6326 160.424 17.6326C162.991 17.6326 164.553 21.148 164.888 27.6207L164.999 29.4621L162.377 29.5179C160.982 29.5737 158.527 29.6295 157.02 29.6853Z" fill="#A4A4A4"/>
<path d="M128.283 15.4565C127.391 15.2891 126.609 15.2333 124.935 15.2891C122.369 15.4007 120.639 15.7355 118.686 16.6283C118.072 16.9073 117.514 17.1863 117.458 17.1863C117.402 17.1863 117.402 13.3361 117.458 8.59313C117.514 1.89718 117.514 0 117.347 0C116.844 0 101.723 2.90158 101.555 3.01318C101.444 3.12478 101.388 3.45957 101.388 3.90597C101.444 4.74296 101.332 4.68716 103.174 5.07776C103.732 5.18936 104.401 5.46836 104.624 5.63576C105.238 6.08215 105.74 7.03074 106.131 8.36993C106.41 9.43013 106.466 10.2113 106.577 17.4653C106.689 24.8866 106.689 32.5311 106.466 46.481L106.354 52.2842L107.414 52.5074C108.977 52.8422 113.496 53.6234 114.947 53.7908C117.123 54.014 122.145 53.9582 123.764 53.735C130.739 52.6748 135.984 48.6572 138.439 42.4635C139.108 40.8453 139.722 38.2785 139.945 36.4371C140.224 34.2609 140.057 29.8528 139.666 28.0672C138.216 21.3154 133.975 16.6283 128.283 15.4565ZM117.681 50.4428C117.514 49.9406 117.291 32.5311 117.347 25.612L117.402 20.1994L118.407 19.9204C119.076 19.753 119.858 19.6414 120.75 19.6414C122.034 19.6414 122.145 19.6972 123.206 20.1994C125.772 21.4828 127.502 24.6076 128.339 29.3506C128.618 31.1362 128.674 35.9349 128.395 38.0553C127.725 43.2447 126.051 47.4296 123.764 49.4384C122.871 50.2196 122.034 50.666 120.974 50.8892C120.192 51.0566 119.969 51.0566 118.518 50.945C117.96 50.8334 117.849 50.7776 117.681 50.4428Z" fill="#A4A4A4"/>
</svg>
