<svg width="267" height="62" viewBox="0 0 267 62" fill="none" xmlns="http://www.w3.org/2000/svg">
<path d="M144.905 30.911C144.797 30.8841 144.717 30.8841 144.609 30.8572C144.609 29.3786 144.555 27.8731 144.636 26.3945C144.69 25.2385 144.502 24.7278 143.157 25.1848C141.733 25.6687 140.227 25.9913 138.749 26.3139C137.969 26.4752 137.673 26.8516 137.673 27.6849C137.727 31.3949 137.539 35.1317 137.754 38.8416C137.915 41.8257 136.302 43.5193 134.125 44.8904C132.055 46.2077 130.28 45.2936 129.958 42.8741C129.823 41.8526 129.823 40.831 129.823 39.7825C129.823 30.1045 129.796 20.4533 129.85 10.7752C129.85 9.59234 129.608 9.29663 128.425 9.64611C126.463 10.2375 124.473 10.7483 122.457 11.2054C121.409 11.4204 121.032 11.8506 121.032 12.9797C121.086 20.3189 121.086 27.6581 121.059 34.9973C121.032 39.7288 118.075 43.2774 113.451 44.2183C108.72 45.1861 105.521 43.2505 104.096 38.5997C104.015 38.3039 103.908 38.0082 103.854 37.6856C102.268 28.8141 103.209 20.292 107.644 12.3345C109.929 8.22128 113.209 5.07592 117.672 3.40914C122.323 1.66171 127.054 1.50041 131.651 3.54356C133.533 4.37694 134.877 5.82865 135.012 8.0331C135.146 10.1838 134.313 11.7699 132.297 12.6571C132.162 12.7108 132.055 13.3292 132.189 13.4636C133.022 14.297 133.936 14.9959 134.743 15.8293C135.388 16.5014 135.818 16.3132 136.41 15.7756C139.609 12.8721 139.985 7.95245 137.189 4.6189C135.496 2.57575 133.264 1.31222 130.71 0.801438C122.592 -0.892223 114.93 0.478836 107.94 4.96838C96.8909 12.0387 90.9766 28.599 94.9553 41.1267C96.3533 45.5356 99.0685 48.7347 103.666 50.0251C110.44 51.9339 116.758 49.2993 120.253 43.1161C120.495 42.6859 120.737 42.2289 121.032 41.6913C121.57 43.358 121.973 44.8904 122.565 46.2883C123.667 48.8154 125.629 50.1327 128.425 50.3209C131.194 50.5359 133.426 49.4875 135.227 47.4981C136.06 46.584 136.786 45.6162 137.7 44.4603C137.7 45.912 137.727 47.1217 137.7 48.3315C137.673 49.1111 137.996 49.2455 138.668 49.0842C140.2 48.7347 141.733 48.3852 143.265 48.1702C144.367 48.0358 144.636 47.5787 144.636 46.5303C144.609 43.1698 144.582 39.8094 144.717 36.449C144.797 34.2714 145.711 32.3089 147.513 31.0185C148.131 30.5884 149.26 30.4002 149.959 30.669C150.47 30.8572 150.927 31.9057 150.981 32.6046C151.142 34.0563 151.034 35.5618 151.034 37.0404C151.061 39.3793 150.981 41.6913 151.142 44.0301C151.411 47.9282 154.287 49.9176 158.078 48.9229C159.96 48.439 161.277 47.1486 162.325 45.6162C162.756 44.9979 162.944 44.7829 163.454 45.6162C166.197 50.1596 171.52 50.4284 174.799 46.2077C175.283 45.5894 175.713 44.971 176.359 44.057C176.359 45.0517 176.305 45.67 176.359 46.2883C176.493 47.4712 176.09 48.2239 175.041 48.896C173.482 49.9176 172.057 51.1811 170.686 52.4447C169.396 53.6275 168.643 55.133 168.401 56.9073C168.052 59.5957 169.772 61.6388 172.46 61.8539C176.197 62.1496 178.832 60.4559 180.741 57.445C182.434 54.8104 183.268 51.8263 183.106 48.7616C182.972 46.1539 183.993 44.514 185.956 43.0354C186.843 42.3633 187.004 42.5784 187.354 43.4656C188.94 47.6325 192.784 49.7563 197.22 49.0305C200.876 48.439 203.592 46.369 205.904 43.6C206.414 43.0085 206.871 42.3633 207.597 41.4224C207.597 42.4978 207.543 43.1967 207.597 43.8688C208.054 48.6541 212.409 50.7241 216.388 48.0089C217.383 47.3099 218.243 46.3152 218.969 45.3205C219.614 44.4334 219.829 44.514 220.367 45.3743C221.577 47.4174 223.432 48.5465 225.77 48.9498C230.072 49.6488 233.647 48.1433 236.363 45.0248C238.701 42.3365 240.583 39.2717 242.573 36.3146C243.325 35.2123 243.809 33.9488 244.481 32.7659C244.562 32.6315 245.153 32.5509 245.207 32.6315C247.035 35.3467 248.326 38.2502 248.353 41.6106C248.353 43.4924 248.191 43.6269 246.417 43.0892C244.266 42.444 242.062 41.9063 239.857 42.901C238.567 43.4925 237.787 44.4603 237.761 45.912C237.761 47.3099 238.513 48.2777 239.75 48.8423C240.18 49.0573 240.664 49.2455 241.121 49.3531C244.455 49.9714 247.734 49.7294 250.799 48.2239C251.632 47.8207 252.224 47.9282 253.057 48.1702C255.074 48.7616 257.09 49.4068 259.16 49.595C262.493 49.8907 265.558 47.283 266.123 43.9764C266.176 43.6269 265.988 43.2236 265.908 42.8472C265.612 43.0354 265.209 43.143 265.02 43.3849C263.622 45.213 261.767 45.8044 259.563 45.5087C258.757 45.4012 257.95 45.3474 257.17 45.213C256.418 45.0786 255.396 45.1323 255.02 44.6753C254.697 44.299 255.1 43.2774 255.208 42.5515C255.584 39.5406 254.697 36.9329 252.573 34.836C250.88 33.1692 249.052 31.6637 247.25 30.1045C246.713 29.6474 246.686 29.3248 246.982 28.6528C247.492 27.5236 247.922 26.3139 248.084 25.1041C248.272 23.6793 247.331 22.9534 245.906 23.1954C244.347 23.4374 243.057 24.8084 243.03 26.4483C243.003 27.4161 243.325 28.357 243.46 29.3248C243.514 29.7281 243.675 30.2658 243.514 30.5615C241.497 34.0832 239.535 37.6587 237.303 41.046C236.443 42.3633 235.018 43.4924 233.62 44.2721C230.206 46.1539 227.491 44.9173 226.389 41.1805C226.201 40.5353 226.093 39.8632 225.932 39.218C225.717 38.3846 226.066 38.062 226.9 37.8738C228.593 37.4705 230.287 37.0404 231.9 36.3952C233.674 35.6962 235.207 34.594 236.174 32.8735C238.218 29.3248 236.551 25.5343 232.545 24.8084C228.432 24.0557 225.018 25.4267 222.276 28.4646C218.861 32.2551 217.947 36.7716 218.861 41.745C219.103 43.0623 217.571 44.8366 216.119 44.9442C214.936 45.0517 214.318 44.2721 214.291 42.5246C214.264 39.7556 214.264 36.9598 214.291 34.1908C214.291 33.68 214.479 33.1423 214.748 32.6853C218.297 26.6903 220.663 20.2382 221.738 13.3023C222.195 10.3451 222.464 7.33413 221.604 4.37695C220.501 0.58637 216.899 -0.919106 213.431 0.989623C211.657 1.95743 210.581 3.54356 209.748 5.31787C208.296 8.46324 207.651 11.7968 207.597 15.211C207.463 22.6308 207.49 30.0776 207.409 37.4974C207.409 38.062 207.463 38.8147 207.14 39.1642C205.662 40.8847 204.264 42.7935 202.436 44.057C198.941 46.4496 195.527 44.9979 194.344 40.9385C194.182 40.4277 194.102 39.8901 193.967 39.3793C193.725 38.4921 194.021 38.1426 194.935 37.9276C196.736 37.4705 198.645 37.0673 200.285 36.2339C201.71 35.508 203.135 34.4058 204.022 33.1154C206.414 29.6743 204.613 25.6418 200.527 24.8622C197.408 24.2707 194.559 25.0235 192.059 26.9322C188.456 29.7012 186.574 33.4918 186.628 37.9544C186.655 39.9438 185.956 41.1267 184.531 42.1752C184.424 42.2558 184.343 42.3633 184.235 42.444C183.94 42.6322 183.644 42.7935 183.375 42.9817C183.321 42.6591 183.241 42.3096 183.241 41.987C183.241 36.6909 183.214 31.4218 183.268 26.1257C183.268 24.9428 182.945 24.8084 182.004 25.3461C180.741 26.0988 179.611 26.1257 178.16 25.5074C173.724 23.6524 169.181 24.7546 165.901 28.3033C162.352 32.1476 161.492 36.7716 162.245 41.7988C162.46 43.2505 161.68 44.6216 160.309 45.1592C159.261 45.5625 158.508 45.2399 158.239 44.1645C158.078 43.4924 158.024 42.7397 157.997 42.0407C157.97 37.8738 158.051 33.7068 157.917 29.5399C157.809 25.588 155.201 23.8137 151.438 25.0235C149.152 25.7493 147.539 27.3355 146.142 29.1904C145.685 29.755 145.308 30.3464 144.905 30.911ZM44.0648 42.8472C44.3068 43.2236 44.5219 43.5193 44.71 43.815C47.1564 47.525 50.6513 49.3531 55.0602 49.1111C59.5229 48.8691 62.7489 46.6109 64.6576 42.6053C65.2222 41.3955 65.491 40.0782 65.9749 38.8147C66.1093 38.4652 66.405 37.9813 66.7008 37.9007C69.6848 37.2555 71.7817 35.5349 73.0453 32.7928C73.3141 32.2014 73.6098 32.1207 73.9055 32.739C74.712 34.3789 75.6798 35.9651 76.2444 37.6856C76.7283 39.0836 76.7821 40.6697 76.8896 42.1752C76.9703 43.1698 76.6745 43.7613 75.411 43.2505C74.4432 42.8472 73.341 42.6591 72.2925 42.4978C70.7064 42.2289 69.1472 42.3633 67.7761 43.3043C65.8136 44.6753 65.8405 47.3099 67.8299 48.5734C68.4213 48.9498 69.1203 49.2455 69.7924 49.3799C73.1797 49.9983 76.4595 49.6757 79.6317 48.1971C80.1425 47.9551 80.8952 47.982 81.4867 48.1164C83.1803 48.5197 84.8202 49.1649 86.5139 49.4875C91.1647 50.3746 93.4767 47.74 94.7134 44.0032C94.8209 43.6537 94.5789 43.1967 94.4983 42.7935C94.2026 42.9817 93.8531 43.143 93.638 43.3849C92.6164 44.5947 91.4067 45.5894 89.7668 45.5087C87.8043 45.4012 85.8687 45.0517 83.9062 44.8366C83.261 44.756 83.261 44.514 83.4223 43.9495C84.5245 40.4546 83.6374 37.3899 81.1103 34.836C79.5779 33.2767 77.8574 31.9057 76.1906 30.4808C75.4379 29.8356 75.0346 29.2711 75.7336 28.2764C76.1637 27.6312 76.4864 26.7978 76.5132 26.0182C76.5401 25.1579 76.4326 23.7331 75.9756 23.5449C75.1959 23.2223 73.9593 23.4105 73.1528 23.8406C71.5398 24.7009 71.1634 26.6634 71.8355 28.8678C71.9968 29.3517 72.2388 29.97 72.1043 30.3733C71.4322 32.2014 70.3569 33.8144 68.5826 34.7822C66.5395 35.9113 66.2169 35.7769 65.6792 33.5187C64.3888 28.1957 60.0874 24.7009 54.6569 24.6202C49.0383 24.5396 44.5219 27.7656 43.2852 33.1423C42.8013 35.2123 42.9895 37.4705 43.097 39.6481C43.1239 40.5353 43.0433 41.0192 42.2368 41.4493C40.3012 42.4709 38.258 43.0085 36.1342 42.6859C31.4027 42.0139 26.6981 41.1267 21.9935 40.3471C21.2139 40.2127 21.187 39.8363 21.4289 39.2449C23.499 33.7606 23.9022 28.0075 24.0904 22.2276C24.2248 18.3026 24.171 14.3238 24.6818 10.4526C25.1926 6.52762 27.0476 3.22095 31.3221 2.25315C34.1448 1.63483 36.9676 2.03808 39.4946 3.51667C43.2315 5.66735 43.3121 10.2107 39.6559 12.4958C39.1183 12.8452 39.0376 13.0334 39.5215 13.4367C40.4625 14.2701 41.3227 15.1841 42.3174 15.9369C42.5594 16.125 43.339 16.0982 43.5003 15.8831C44.3337 14.8615 45.2746 13.8131 45.7585 12.6033C47.2909 8.86649 46.108 5.18345 42.7207 2.79082C38.5268 -0.193251 33.7685 -0.435203 28.9563 0.451953C19.789 2.22626 14.1704 9.26974 14.5736 18.5714C14.7081 21.6899 15.2188 24.7815 15.5414 27.9C15.8909 31.2336 16.1866 34.5671 16.5092 37.9007C16.5899 38.761 16.3211 38.976 15.4608 38.7072C14.1973 38.3039 12.88 37.9813 11.5627 37.7125C8.79368 37.1479 6.05156 36.9866 3.44386 38.3846C0.782396 39.8363 -0.26606 42.1483 0.0565418 45.1055C0.325377 47.7938 2.01904 49.3262 4.43855 49.9714C9.60019 51.3424 14.3317 50.509 18.0416 46.3959C18.9556 45.3743 19.574 45.3743 20.7031 45.912C23.8216 47.3637 26.8863 49.0036 30.1661 50.0251C35.6772 51.7457 39.6022 50.0789 42.6669 45.213C43.1239 44.4603 43.5541 43.6806 44.0648 42.8472Z" fill="#EFEEEE"/>
<path d="M144.905 30.9109C145.308 30.3464 145.685 29.7549 146.088 29.1904C147.486 27.3354 149.099 25.7493 151.384 25.0234C155.148 23.8137 157.755 25.588 157.863 29.5399C157.97 33.7068 157.89 37.8737 157.943 42.0407C157.943 42.7397 157.997 43.4924 158.185 44.1645C158.454 45.2398 159.207 45.5624 160.255 45.1592C161.626 44.6215 162.406 43.2504 162.191 41.7987C161.438 36.7715 162.299 32.1476 165.847 28.3032C169.1 24.7546 173.67 23.6524 178.106 25.5073C179.558 26.1257 180.714 26.0988 181.95 25.346C182.864 24.8084 183.214 24.9428 183.214 26.1257C183.16 31.3948 183.187 36.6909 183.187 41.9869C183.187 42.3095 183.295 42.659 183.321 42.9816C183.617 42.7934 183.913 42.6321 184.182 42.4439C184.289 42.3633 184.37 42.2558 184.477 42.1751C185.902 41.1266 186.601 39.9438 186.574 37.9544C186.521 33.4648 188.402 29.7012 192.005 26.9322C194.505 25.0234 197.355 24.2707 200.473 24.8621C204.586 25.6417 206.387 29.6743 203.968 33.1154C203.054 34.4058 201.656 35.508 200.231 36.2338C198.591 37.0672 196.709 37.4705 194.881 37.9275C193.967 38.1426 193.672 38.5189 193.914 39.3792C194.048 39.89 194.155 40.4277 194.29 40.9385C195.473 44.9979 198.887 46.4496 202.382 44.057C204.21 42.7934 205.581 40.8847 207.086 39.1642C207.409 38.7878 207.355 38.0619 207.355 37.4974C207.409 30.0775 207.382 22.6308 207.543 15.2109C207.597 11.7967 208.242 8.4363 209.694 5.31782C210.501 3.54351 211.603 1.95738 213.377 0.989573C216.818 -0.919156 220.448 0.559437 221.55 4.37689C222.41 7.33408 222.141 10.345 221.684 13.3022C220.609 20.2382 218.243 26.6902 214.748 32.7928C214.506 33.2229 214.291 33.7875 214.291 34.2982C214.237 37.0672 214.264 39.8362 214.291 42.6321C214.318 44.3527 214.936 45.1323 216.119 45.0516C217.571 44.9172 219.103 43.1429 218.861 41.8525C217.947 36.9059 218.861 32.3895 222.276 28.5721C224.991 25.5342 228.432 24.1632 232.545 24.9159C236.551 25.6417 238.244 29.4323 236.174 32.9809C235.18 34.7015 233.674 35.8037 231.9 36.5027C230.287 37.1479 228.593 37.578 226.9 37.9813C226.066 38.1695 225.717 38.4921 225.932 39.3255C226.093 39.9707 226.201 40.6427 226.389 41.2879C227.491 45.0248 230.206 46.2614 233.62 44.3796C235.018 43.5999 236.443 42.4708 237.303 41.1535C239.535 37.7662 241.497 34.1907 243.514 30.669C243.675 30.3732 243.54 29.8356 243.46 29.4323C243.325 28.4645 243.003 27.4967 243.03 26.5558C243.057 24.9159 244.347 23.5717 245.906 23.3029C247.331 23.0609 248.272 23.7868 248.084 25.2116C247.922 26.4214 247.492 27.6311 246.982 28.7602C246.686 29.4323 246.713 29.7549 247.25 30.2119C249.052 31.7712 250.88 33.2767 252.573 34.9434C254.697 37.0404 255.611 39.6481 255.208 42.659C255.127 43.3849 254.697 44.4064 255.02 44.7828C255.396 45.2398 256.418 45.1861 257.17 45.3205C257.977 45.4549 258.783 45.5087 259.563 45.6162C261.767 45.9119 263.622 45.3205 265.02 43.4924C265.209 43.2236 265.612 43.116 265.908 42.9547C265.988 43.3311 266.176 43.7343 266.123 44.0838C265.558 47.3905 262.493 50.0251 259.16 49.7025C257.09 49.5143 255.074 48.8691 253.057 48.2777C252.251 48.0357 251.632 47.9282 250.799 48.3314C247.734 49.8369 244.455 50.0789 241.121 49.4605C240.637 49.3799 240.18 49.1648 239.75 48.9497C238.513 48.3583 237.761 47.4174 237.761 46.0194C237.761 44.5677 238.567 43.573 239.857 43.0085C242.062 42.0138 244.239 42.5515 246.417 43.1967C248.191 43.7343 248.353 43.5999 248.353 41.7181C248.326 38.3576 247.035 35.4542 245.207 32.739C245.153 32.6583 244.562 32.7121 244.481 32.8734C243.809 34.0294 243.325 35.3198 242.573 36.422C240.583 39.3792 238.701 42.4708 236.363 45.1323C233.647 48.2508 230.045 49.7563 225.77 49.0573C223.405 48.6809 221.577 47.5249 220.367 45.4818C219.856 44.5946 219.614 44.5409 218.969 45.428C218.243 46.4227 217.383 47.4174 216.388 48.1164C212.409 50.8316 208.054 48.7616 207.597 43.9763C207.543 43.2773 207.597 42.5784 207.597 41.5299C206.871 42.4708 206.414 43.116 205.904 43.7075C203.592 46.4496 200.876 48.5196 197.22 49.1379C192.784 49.8638 188.94 47.74 187.354 43.573C187.004 42.6859 186.843 42.4977 185.956 43.1429C183.993 44.5946 182.972 46.2614 183.106 48.8691C183.268 51.9338 182.407 54.9179 180.741 57.5525C178.832 60.5634 176.17 62.284 172.46 61.9614C169.772 61.7463 168.052 59.6763 168.401 57.0148C168.616 55.2405 169.396 53.735 170.686 52.5521C172.057 51.2886 173.509 50.052 175.041 49.0035C176.09 48.3045 176.493 47.5787 176.359 46.3958C176.278 45.7775 176.359 45.1592 176.359 44.1645C175.713 45.0516 175.283 45.6968 174.799 46.3152C171.52 50.509 166.197 50.267 163.454 45.7237C162.944 44.8903 162.756 45.1054 162.325 45.7237C161.25 47.2561 159.96 48.5465 158.078 49.0304C154.287 50.0251 151.411 48.0357 151.142 44.1376C150.981 41.8256 151.061 39.4868 151.034 37.1479C151.034 35.6693 151.142 34.1907 150.981 32.7121C150.9 32.0131 150.47 30.9647 149.959 30.7765C149.26 30.5345 148.131 30.6958 147.513 31.126C145.711 32.4164 144.797 34.352 144.717 36.5564C144.582 39.9169 144.609 43.2773 144.636 46.6378C144.636 47.6862 144.367 48.1432 143.265 48.2777C141.706 48.4658 140.2 48.8422 138.668 49.1917C137.996 49.353 137.673 49.2186 137.7 48.439C137.754 47.2292 137.7 46.0463 137.7 44.5677C136.759 45.7237 136.033 46.7184 135.227 47.6056C133.426 49.595 131.194 50.6434 128.425 50.4283C125.656 50.2133 123.667 48.9229 122.565 46.3958C121.946 44.971 121.57 43.4655 121.032 41.7987C120.737 42.3364 120.495 42.7665 120.253 43.2236C116.758 49.4068 110.44 52.0414 103.666 50.1326C99.0685 48.8422 96.3533 45.6431 94.9553 41.2342C90.9766 28.7065 96.8909 12.1462 107.94 5.07587C114.93 0.613204 122.565 -0.784739 130.71 0.908922C133.264 1.44659 135.496 2.71012 137.189 4.72638C139.958 8.03305 139.609 12.9796 136.41 15.883C135.818 16.4207 135.388 16.6089 134.743 15.9368C133.936 15.1034 132.995 14.3776 132.189 13.5711C132.055 13.4366 132.162 12.8452 132.297 12.7645C134.313 11.8505 135.173 10.2644 135.012 8.14059C134.877 5.93614 133.533 4.48443 131.651 3.65104C127.027 1.60789 122.323 1.76919 117.672 3.51662C113.209 5.1834 109.929 8.35565 107.644 12.4419C103.209 20.3995 102.268 28.9215 103.854 37.7931C103.908 38.0888 104.015 38.4114 104.096 38.7071C105.494 43.358 108.72 45.2667 113.451 44.3258C118.075 43.3849 121.032 39.8362 121.059 35.1047C121.086 27.7655 121.086 20.4263 121.032 13.0872C121.032 11.958 121.409 11.5279 122.457 11.3128C124.473 10.8827 126.463 10.345 128.425 9.7536C129.581 9.40411 129.85 9.69983 129.85 10.8827C129.796 20.5608 129.823 30.2119 129.823 39.89C129.823 40.9116 129.823 41.96 129.958 42.9816C130.28 45.4011 132.055 46.3152 134.125 44.9979C136.302 43.6268 137.915 41.9063 137.754 38.9491C137.539 35.2392 137.727 31.5292 137.673 27.7924C137.673 26.959 137.942 26.6096 138.749 26.4214C140.227 26.0988 141.733 25.7762 143.157 25.2923C144.475 24.8352 144.69 25.3729 144.636 26.502C144.582 27.9806 144.609 29.4861 144.609 30.9647C144.717 30.884 144.797 30.884 144.905 30.9109ZM176.332 34.352C176.332 32.3895 176.278 30.427 176.359 28.4645C176.385 27.5505 175.982 27.0935 175.176 26.7709C172.971 25.9375 171.251 26.6902 170.31 29.1635C168.885 32.8196 168.777 36.664 169.1 40.5083C169.181 41.3955 169.369 42.2826 169.691 43.0891C170.417 44.9441 172.219 45.5087 173.832 44.272C175.364 43.116 176.52 41.7181 176.385 39.5405C176.224 37.8469 176.332 36.0994 176.332 34.352ZM214.318 29.6205C217.974 22.2275 219.534 14.4313 219.023 6.28562C218.969 5.1834 218.646 4.08118 218.189 3.08649C217.974 2.60258 217.168 2.11868 216.63 2.11868C216.173 2.11868 215.528 2.71012 215.286 3.19402C214.91 3.97364 214.641 4.88768 214.614 5.77484C214.453 10.4257 214.372 15.0765 214.318 19.7274C214.291 23.034 214.318 26.3138 214.318 29.6205ZM193.537 34.809C193.698 36.7178 193.833 36.9059 195.473 36.1263C196.817 35.4811 198.161 34.6746 199.236 33.653C200.796 32.1744 201.145 30.1851 200.608 28.0881C200.285 26.7977 199.452 26.2332 198.134 26.3138C196.79 26.3945 195.957 27.2816 195.553 28.357C194.774 30.4539 194.209 32.6583 193.537 34.809ZM232.787 29.5399C232.733 29.2173 232.706 28.6527 232.572 28.0881C232.142 26.3676 230.314 25.6686 228.862 26.744C228.351 27.1203 227.867 27.6849 227.572 28.2494C226.254 30.6152 225.959 33.2498 225.824 35.8844C225.824 36.0725 226.201 36.4489 226.416 36.4489C229.373 36.3683 232.76 32.8465 232.787 29.5399ZM176.574 53.6812C176.439 52.2833 176.332 51.2348 176.251 50.2133C175.418 50.9122 174.557 51.6381 173.724 52.3371C173.616 52.4177 173.536 52.5253 173.455 52.6328C172.138 54.1383 171.278 55.805 171.466 57.8751C171.6 59.0579 172.003 60.0526 173.428 60.2139C174.826 60.3484 175.579 59.5687 175.848 58.3859C176.197 56.746 176.359 55.0523 176.574 53.6812ZM242.143 44.1645C241.497 44.6753 240.718 45.1323 240.234 45.7775C240.073 45.9926 240.637 47.0141 241.094 47.283C242.465 48.1432 245.207 47.6325 246.363 46.5302C246.82 46.1001 246.82 45.8044 246.229 45.5893C244.965 45.1323 243.729 44.7022 242.143 44.1645Z" fill="#A4A4A4"/>
<path d="M176.332 34.352C176.332 36.0994 176.251 37.8469 176.359 39.5674C176.493 41.7181 175.337 43.116 173.805 44.2989C172.218 45.5087 170.417 44.971 169.665 43.116C169.342 42.3095 169.127 41.3955 169.073 40.5352C168.777 36.6909 168.885 32.8465 170.283 29.1904C171.251 26.7171 172.944 25.9644 175.149 26.7978C175.955 27.0935 176.359 27.5774 176.332 28.4914C176.278 30.427 176.332 32.3895 176.332 34.352Z" fill="#EFEEEE"/>
<path d="M214.318 29.6204C214.318 26.3137 214.291 23.034 214.318 19.7273C214.372 15.0764 214.453 10.4256 214.614 5.77475C214.641 4.91448 214.91 4.00044 215.286 3.19393C215.528 2.71003 216.173 2.11859 216.63 2.11859C217.168 2.11859 217.974 2.60249 218.189 3.0864C218.646 4.08109 218.969 5.21019 219.023 6.28553C219.534 14.4312 218.001 22.2275 214.318 29.6204Z" fill="#EFEEEE"/>
<path d="M193.537 34.8091C194.209 32.6584 194.774 30.4539 195.553 28.357C195.957 27.2817 196.79 26.3945 198.134 26.3139C199.425 26.2332 200.258 26.7978 200.608 28.0882C201.145 30.1851 200.796 32.1745 199.236 33.6531C198.161 34.6746 196.817 35.4812 195.473 36.1264C193.833 36.906 193.698 36.7178 193.537 34.8091Z" fill="#EFEEEE"/>
<path d="M232.787 29.5399C232.76 32.8197 229.373 36.3683 226.389 36.449C226.201 36.449 225.797 36.0726 225.797 35.8844C225.932 33.2498 226.227 30.6153 227.545 28.2495C227.867 27.685 228.324 27.1204 228.835 26.744C230.26 25.6956 232.115 26.3945 232.545 28.0882C232.706 28.6528 232.733 29.2442 232.787 29.5399Z" fill="#EFEEEE"/>
<path d="M176.574 53.6813C176.359 55.0254 176.197 56.7191 175.821 58.359C175.552 59.5419 174.799 60.3484 173.401 60.1871C171.977 60.0527 171.573 59.0311 171.439 57.8482C171.224 55.7782 172.111 54.1114 173.428 52.6059C173.509 52.4984 173.59 52.3909 173.697 52.3102C174.531 51.5843 175.391 50.8854 176.224 50.1864C176.332 51.2617 176.439 52.2833 176.574 53.6813Z" fill="#EFEEEE"/>
<path d="M242.143 44.1646C243.729 44.7291 244.992 45.1592 246.229 45.5894C246.82 45.8044 246.82 46.1002 246.363 46.5303C245.207 47.6325 242.465 48.1433 241.094 47.283C240.637 47.0142 240.099 45.9926 240.234 45.7776C240.691 45.1055 241.497 44.6753 242.143 44.1646Z" fill="#EFEEEE"/>
<path d="M59.2272 36.9865C58.9583 39.0297 58.7433 41.0191 58.3938 42.9816C58.2593 43.7074 57.9367 44.4333 57.5873 45.0785C56.028 47.7937 52.6407 47.8206 51.2696 45.0247C50.5707 43.6268 50.0868 41.96 50.0599 40.4276C49.9792 37.2823 50.033 34.0831 50.4362 30.9646C50.8126 28.0881 52.4525 26.6364 54.4419 26.6633C56.3506 26.6902 57.8023 28.0881 58.3938 30.9109C58.8508 32.9002 58.9852 34.9703 59.2272 36.9865Z" fill="#EFEEEE"/>
<path d="M94.4714 42.8472C94.1757 43.0354 93.8262 43.1967 93.6111 43.4387C92.5896 44.6484 91.3798 45.6431 89.7399 45.5625C87.7774 45.4549 85.8418 45.1055 83.8793 44.8904C83.2341 44.8097 83.2341 44.5678 83.3954 44.0032C84.4976 40.5084 83.6105 37.4437 81.0834 34.8897C79.5511 33.3305 77.8305 31.9594 76.1637 30.5346C75.411 29.8894 75.0078 29.3248 75.7067 28.3302C76.1369 27.6849 76.4595 26.8516 76.4864 26.0719C76.5132 25.2117 76.4057 23.7868 75.9487 23.5987C75.1691 23.2761 73.9324 23.4642 73.1259 23.8944C71.5129 24.7546 71.1365 26.7171 71.8086 28.9216C71.9699 29.4055 72.2119 30.0238 72.0775 30.4271C71.4054 32.2551 70.33 33.8682 68.5557 34.836C66.5126 35.9651 66.19 35.8307 65.6523 33.5724C64.3619 28.2495 60.0605 24.7546 54.6301 24.674C49.0114 24.5933 44.495 27.8194 43.2583 33.1961C42.7744 35.2661 42.9626 37.5243 43.0702 39.7019C43.097 40.589 43.0164 41.0729 42.2099 41.5031C40.2743 42.5246 38.2311 43.0623 36.1073 42.7397C31.3758 42.0676 26.6712 41.1805 21.9666 40.4008C21.187 40.2664 21.1601 39.8901 21.402 39.2986C23.4721 33.8144 23.8753 28.0613 24.0635 22.2814C24.1979 18.3564 24.1442 14.3776 24.655 10.5064C25.1657 6.5814 27.0207 3.27473 31.2952 2.30692C34.1179 1.6886 36.9407 2.09185 39.4678 3.57044C43.2046 5.72113 43.2852 10.2644 39.6291 12.5495C39.0914 12.899 39.0107 13.0872 39.4946 13.4905C40.4356 14.3238 41.2958 15.2379 42.2905 15.9906C42.5325 16.1788 43.3121 16.1519 43.4734 15.9369C44.3068 14.9153 45.2477 13.8668 45.7316 12.6571C47.264 8.92026 46.0811 5.23722 42.6938 2.84459C38.5 -0.139479 33.7416 -0.381431 28.9294 0.505725C19.789 2.22627 14.1704 9.26975 14.5736 18.5714C14.7081 21.6899 15.2188 24.7815 15.5414 27.9C15.8909 31.2336 16.1866 34.5671 16.5092 37.9007C16.5899 38.761 16.3211 38.976 15.4608 38.7072C14.1973 38.3039 12.88 37.9813 11.5627 37.7125C8.79368 37.1479 6.05156 36.9866 3.44386 38.3846C0.782396 39.8363 -0.26606 42.1483 0.0565418 45.1055C0.325377 47.7938 2.01904 49.3262 4.43855 49.9714C9.60019 51.3424 14.3317 50.509 18.0416 46.3959C18.9556 45.3743 19.574 45.3743 20.7031 45.912C23.8216 47.3637 26.8863 49.0036 30.1661 50.0251C35.6772 51.7457 39.6022 50.0789 42.6669 45.213C43.1508 44.4603 43.5809 43.7075 44.0917 42.8472C44.3337 43.2236 44.5487 43.5193 44.7369 43.8151C47.1833 47.525 50.6782 49.3531 55.0871 49.1111C59.5497 48.8691 62.7758 46.6109 64.6845 42.6053C65.249 41.3955 65.5179 40.0782 66.0018 38.8147C66.1362 38.4652 66.4319 37.9813 66.7276 37.9007C69.7117 37.2555 71.8086 35.5349 73.0721 32.7928C73.341 32.2014 73.6367 32.1207 73.9324 32.739C74.7389 34.3789 75.7067 35.9651 76.2713 37.6856C76.7552 39.0836 76.809 40.6697 76.9165 42.1752C76.9971 43.1698 76.7014 43.7613 75.4379 43.2505C74.4701 42.8472 73.3679 42.6591 72.3194 42.4978C70.7333 42.2289 69.174 42.3633 67.803 43.3043C65.8405 44.6753 65.8674 47.3099 67.8567 48.5734C68.4482 48.9498 69.1471 49.2455 69.8192 49.3799C73.2066 49.9983 76.4863 49.6757 79.6586 48.1971C80.1694 47.9551 80.9221 47.982 81.5136 48.1164C83.2072 48.5197 84.8471 49.1649 86.5408 49.4875C91.1916 50.3746 93.5036 47.74 94.7402 44.0032C94.8209 43.7344 94.5789 43.2505 94.4714 42.8472ZM15.192 43.6269C13.6596 46.1808 11.3745 47.5787 8.2829 47.6594C7.96029 47.6325 7.55704 47.6056 7.15379 47.5519C5.24506 47.3368 4.16972 46.4228 3.95465 44.8635C3.76647 43.3043 4.68051 41.9332 6.45482 41.3687C9.51954 40.4277 12.3692 41.288 15.1382 42.5784C15.2995 42.6322 15.3533 43.358 15.192 43.6269ZM58.4206 42.9817C58.2862 43.7075 57.9636 44.4334 57.6141 45.0786C56.0549 47.7938 52.6676 47.8207 51.2965 45.0248C50.5975 43.6269 50.1136 41.9601 50.0867 40.4277C50.0061 37.2824 50.0599 34.0832 50.4631 30.9647C50.8395 28.0882 52.4794 26.6365 54.4688 26.6634C56.3775 26.6903 57.8292 28.0882 58.4206 30.911C58.8508 32.9003 58.9852 34.9704 59.2271 36.9866C58.9583 39.0298 58.7432 41.0192 58.4206 42.9817ZM74.7927 46.5572C73.7442 47.068 72.6151 47.4981 71.5398 47.9282C69.6848 47.7132 68.5826 46.9873 68.6633 45.8582C68.7439 44.7829 69.7924 44.2183 71.5398 44.514C72.6151 44.7022 73.6636 45.1592 74.6852 45.5087C75.4379 45.8313 75.3572 46.2883 74.7927 46.5572Z" fill="#A4A4A4"/>
<path d="M71.5398 47.9551C69.6848 47.74 68.5826 47.0142 68.6633 45.8851C68.7439 44.8097 69.7924 44.2452 71.5398 44.5409C72.6151 44.7291 73.6636 45.1861 74.6852 45.5356C75.411 45.7775 75.3304 46.2614 74.7658 46.5303C73.7442 47.0948 72.6151 47.4981 71.5398 47.9551Z" fill="#EFEEEE"/>
<path d="M201.038 58.6547L201.065 58.3859L201.441 58.3321C201.575 58.3052 201.602 58.0633 201.575 56.9879L201.495 54.7297H201.441L200.124 58.5203H199.64L198.403 54.891H198.322L198.215 56.9879C198.161 58.2514 198.161 58.3321 198.296 58.359L198.699 58.4127L198.726 58.6816H197.193L197.22 58.4127L197.597 58.359C197.731 58.3321 197.812 58.2514 197.892 56.9879L197.973 55.1867C198 54.8641 197.892 54.7028 197.677 54.649L197.274 54.5684L197.247 54.2996H198.994L200.07 57.4718H200.124L201.199 54.2996H202.893L202.866 54.5684L202.409 54.5953C202.301 54.6222 202.247 54.7028 202.247 54.8103L202.328 57.0148C202.355 58.1708 202.409 58.3321 202.57 58.359L202.946 58.4127L202.973 58.6816H201.038V58.6547Z" fill="#343537"/>
<path d="M207.974 58.6547L208 58.3859L208.296 58.3321C208.565 58.2783 208.565 58.1708 208.377 57.6063L208.242 57.1492H206.791L206.656 57.5525C206.468 58.0902 206.468 58.3052 206.71 58.3321L206.979 58.3859L207.006 58.6547H205.473L205.5 58.3859L205.689 58.3321C205.984 58.2515 206.092 58.1708 206.522 56.961L207.328 54.7028V54.434L208.081 54.1652L209.398 58.117C209.425 58.2246 209.533 58.3052 209.667 58.3321L209.99 58.4128L210.017 58.6816H207.974V58.6547ZM207.57 54.9986H207.517L206.898 56.8266H208.135L207.57 54.9986Z" fill="#343537"/>
<path d="M217.06 56.961L216.791 56.9878C216.603 57.0147 216.549 57.0416 216.549 57.1223V58.1438L216.98 58.1976L217.006 58.3858C216.469 58.6008 215.662 58.7622 214.99 58.7622C213.565 58.7622 212.544 57.9288 212.544 56.5308C212.544 55.0522 213.7 54.192 215.071 54.192C215.501 54.192 215.877 54.2726 216.066 54.3533L216.657 54.2188V55.6974H216.227L215.985 54.7565C215.743 54.6221 215.447 54.5146 215.044 54.5146C214.103 54.5146 213.431 55.3211 213.431 56.4233C213.431 57.6599 213.996 58.4664 215.044 58.4664C215.313 58.4664 215.635 58.3858 215.824 58.3051V57.1223C215.824 57.0416 215.77 57.0147 215.582 57.0147L215.259 56.9878L215.232 56.719H217.141L217.06 56.961Z" fill="#343537"/>
<path d="M222.034 58.6547L222.061 58.3859L222.356 58.3321C222.625 58.2783 222.625 58.1708 222.437 57.6063L222.303 57.1492H220.851L220.716 57.5525C220.528 58.0902 220.528 58.3052 220.77 58.3321L221.039 58.3859L221.066 58.6547H219.534L219.56 58.3859L219.749 58.3321C220.044 58.2515 220.152 58.1708 220.582 56.961L221.388 54.7028V54.434L222.141 54.1652L223.458 58.117C223.485 58.2246 223.593 58.3052 223.727 58.3321L224.05 58.4128L224.077 58.6816H222.034V58.6547ZM221.604 54.9986H221.55L220.931 56.8266H222.168L221.604 54.9986Z" fill="#343537"/>
<path d="M230.126 58.6547H226.577V58.359L229.265 54.5953V54.5684H228.486C227.491 54.5684 227.384 54.676 227.249 55.1061L227.115 55.6706H226.738V54.2727H230.206V54.5684L227.491 58.3321V58.359H228.351C229.454 58.359 229.561 58.2246 229.695 57.8482L229.857 57.2837H230.287L230.126 58.6547Z" fill="#343537"/>
<path d="M233.083 58.6547L233.11 58.3859L233.459 58.359C233.647 58.3321 233.701 58.3052 233.701 58.2246V54.676C233.701 54.6222 233.647 54.5953 233.432 54.5684L233.11 54.5415L233.083 54.2727H235.099L235.072 54.5415L234.723 54.5684C234.535 54.5953 234.481 54.6222 234.481 54.7028V58.2515C234.481 58.3321 234.535 58.359 234.723 58.359L235.045 58.3859L235.072 58.6547H233.083Z" fill="#343537"/>
<path d="M242.734 54.5414L242.411 54.6221C242.169 54.6759 242.116 54.7296 242.116 56.02V58.7353H241.632L238.997 55.1329H238.943V56.961C238.943 58.2245 238.997 58.3051 239.239 58.3589L239.589 58.4396L239.616 58.7084H238.003L238.029 58.4396L238.352 58.3589C238.594 58.3051 238.648 58.2514 238.648 56.961V55.1867C238.648 54.864 238.54 54.7027 238.379 54.6221L238.056 54.5414L238.029 54.2726H239.374L241.766 57.5793H241.82V55.9932C241.82 54.7296 241.766 54.649 241.524 54.5952L241.175 54.5146L241.148 54.2457H242.788L242.734 54.5414Z" fill="#343537"/>
<path d="M249.186 58.6547H245.584L245.611 58.3859L245.879 58.359C246.068 58.3321 246.121 58.3052 246.121 58.2246V54.676C246.121 54.6222 246.068 54.5953 245.852 54.5684L245.584 54.5415L245.557 54.2727H249.186V55.6438H248.783L248.621 55.0254C248.514 54.6222 248.38 54.5684 247.17 54.5684H246.874V56.289H247.062C247.519 56.289 247.654 56.2621 247.734 56.1008L247.896 55.6438H248.218L248.057 57.2299H247.761L247.707 56.7998C247.681 56.6385 247.627 56.5847 247.062 56.5847H246.901V58.359H247.17C248.433 58.359 248.568 58.3052 248.702 57.902L248.863 57.3105H249.294L249.186 58.6547Z" fill="#343537"/>
</svg>
