<svg width="37" height="37" viewBox="0 0 37 37" fill="none" xmlns="http://www.w3.org/2000/svg">
<circle cx="18.5" cy="18.5" r="18" stroke="#377C57"/>
<path d="M7.16511 8.02429C7.63899 8.56178 7.89816 9.37285 8.05446 10.8243C8.22543 12.3684 8.35265 12.9402 8.68961 13.6047C9.34439 14.9192 10.9032 15.9111 12.6965 16.1604C13.0973 16.219 15.3842 16.3216 15.4232 16.2874C15.4525 16.2531 14.959 15.3247 14.5142 14.582C13.532 12.9402 12.1151 11.2934 10.732 10.1792C10.4681 9.96899 10.2531 9.78833 10.2531 9.77839C10.2531 9.71006 11.3087 10.3989 11.9389 10.873C12.623 11.3958 13.9862 12.7739 14.5533 13.5214C16.3076 15.8376 17.4216 18.5936 17.7099 21.3399C17.7538 21.7554 17.7978 22.1267 17.8075 22.1609C17.8465 22.2979 18.174 22.3759 18.6432 22.3565C19.0194 22.3468 19.1123 22.3272 19.1953 22.2442L19.293 22.1465L19.0974 21.4135C18.9903 21.0077 18.829 20.4409 18.7363 20.1524L18.5701 19.6199L18.6777 19.2973C19.3568 17.3134 21.6536 14.704 24.2287 13.0036C25.3137 12.2852 26.54 11.7037 27.5173 11.4448C27.9521 11.3275 28.1671 11.3178 27.8398 11.4301C27.4343 11.567 26.2907 12.1875 25.6213 12.6321C24.0282 13.6827 22.6553 14.9189 21.3455 16.4777L20.935 16.9663L21.6141 16.9956C24.0379 17.1079 25.1325 16.9906 26.1489 16.5118C26.9845 16.1209 27.6783 15.5148 28.2011 14.7331C28.6653 14.0393 28.7925 13.7215 29.2321 12.1334C29.4277 11.4443 29.7013 10.8091 29.9749 10.4329C30.0678 10.296 30.1411 10.1787 30.1265 10.169C30.1168 10.1593 29.9995 10.169 29.8675 10.1934C29.2957 10.301 28.5334 10.3497 26.7696 10.3937C24.8346 10.4377 24.0966 10.5013 23.3881 10.6819C21.844 11.0778 20.7787 11.9671 20.3975 13.179C20.2363 13.6822 20.1533 14.4592 20.1923 15.0554L20.2216 15.5342L19.8943 15.8866C19.2592 16.556 18.5458 17.5236 18.2329 18.1294C18.1693 18.2614 18.1059 18.359 18.101 18.3493C18.0913 18.3444 17.9934 18.1197 17.8811 17.8509C17.7687 17.587 17.5145 17.0445 17.3192 16.6536L16.9577 15.9402L17.0749 15.6813C17.764 14.1225 17.842 12.3341 17.2752 11.1125C17.0016 10.5311 16.6058 10.0669 16.0437 9.67577C15.7505 9.47548 14.8122 9.03565 14.2943 8.85972C13.317 8.53222 12.2371 8.36125 10.2777 8.21961C8.71893 8.10729 7.74658 7.99 7.1015 7.82376L6.9549 7.78948L7.16511 8.02429Z" fill="#377C57"/>
<path d="M19.6354 20.2697C19.6354 20.2794 19.6891 20.4652 19.7527 20.6802L19.865 21.0711L20.3975 21.1297C22.5917 21.374 23.6227 22.019 22.743 22.5956C22.4597 22.7812 21.8927 22.9621 21.1989 23.094C19.5131 23.4116 16.7472 23.3433 15.2617 22.9524C13.9765 22.6104 13.6833 22.0581 14.5727 21.6379C14.9295 21.4619 15.6576 21.2763 16.327 21.1784C16.5909 21.1394 16.8158 21.1004 16.8255 21.0855C16.8498 21.0659 16.7765 20.5773 16.7228 20.4014C16.6935 20.3037 16.6252 20.3085 15.6382 20.465C13.8398 20.7582 12.5256 21.374 12.3593 22.0042C12.3057 22.1997 12.3496 22.3364 13.4979 25.7618C14.1527 27.7165 14.7342 29.3779 14.7831 29.4462C15.3695 30.2379 18.4578 30.6092 20.7007 30.1596C21.6243 29.969 22.2252 29.6905 22.3864 29.3679C22.4255 29.2899 22.9875 27.6479 23.6373 25.7129C24.7516 22.3851 24.8149 22.1848 24.7613 22.0089C24.5707 21.3198 23.1682 20.6993 21.1502 20.4208C20.4221 20.3186 19.6354 20.2403 19.6354 20.2697Z" fill="#377C57"/>
</svg>
