<svg width="282" height="31" viewBox="0 0 282 31" fill="none" xmlns="http://www.w3.org/2000/svg">
<path fill-rule="evenodd" clip-rule="evenodd" d="M6.33333 12.5001V6.50014H13.1667C15.8333 6.50014 17.5 7.66681 17.5 9.66681C17.5 11.5001 15.6667 12.6668 13 12.6668H6.33333V12.5001ZM0 30.3335H6.33333V19.0001H13L17.5 30.3335H24.3333L19.3333 17.6668L19.5 17.5001C22 15.6668 23.6667 12.5001 23.6667 9.50014C23.6667 3.83348 19.5 0.166809 13.5 0.166809H0V30.3335Z" fill="#A4A4A4"/>
<path fill-rule="evenodd" clip-rule="evenodd" d="M29.6667 0H51.8333V6.5H36.1667V11H44.6667V17.3333H36.1667V24.1667H52.1667V30.3333H29.6667V0Z" fill="#A4A4A4"/>
<path fill-rule="evenodd" clip-rule="evenodd" d="M67.3333 17.3333L70.5 9.83333L73.6667 17.3333H67.3333ZM61.8333 30.3333L64.8333 23.6667H76.1667L79.1667 30.3333H85.8333L73.3333 0H68.1667L55.5 30.3333H61.8333Z" fill="#A4A4A4"/>
<path fill-rule="evenodd" clip-rule="evenodd" d="M90.1666 0H96.6666V24.1667H112.667V30.3333H90.1666V0Z" fill="#A4A4A4"/>
<path fill-rule="evenodd" clip-rule="evenodd" d="M123.667 20.1667C126.667 23.8333 128.5 24.6667 131.333 24.6667C134.5 24.6667 136.833 23.3333 136.833 21.3333C136.833 19.6667 135.5 18.8333 131.667 18C126.167 16.6667 124.167 15.5 122.5 13.1667C121.833 11.8333 121.333 10.5 121.333 8.83333C121.333 3.66667 125.5 0 131.333 0C135.667 0 140.167 2.33333 143 6L138.333 9.66667C135.167 7 133.833 6.33333 131 6.33333C128.667 6.33333 127.333 7.16667 127.333 8.66667C127.333 10 128.167 10.6667 130.667 11.1667C131.333 11.3333 132.333 11.6667 133.333 12L137.167 13.1667C140.333 14.3333 142.667 17.5 142.667 21.1667C142.667 26.8333 137.833 31 131.5 31C128.167 31 124.5 29.6667 122.167 27.8333C121.333 27.1667 120.333 26 119 24.6667C118.5 24.5 118.5 24.1667 118.167 23.8333L123.667 20.1667Z" fill="#A4A4A4"/>
<path fill-rule="evenodd" clip-rule="evenodd" d="M150.5 0H156.833V30.3333H150.5V0Z" fill="#A4A4A4"/>
<path fill-rule="evenodd" clip-rule="evenodd" d="M165.667 0H171.667L179.167 16.5L186.833 0H193.167V30.3333H186.833V15L179.167 30.3333L171.833 15.3333V30.3333H165.667V0Z" fill="#A4A4A4"/>
<path fill-rule="evenodd" clip-rule="evenodd" d="M208.667 12.5001V6.50014H216.333C218.833 6.50014 220.167 7.66681 220.167 9.66681C220.167 11.5001 218.5 12.6668 216 12.6668H208.667V12.5001ZM202.333 30.3335H209V19.0001H216.5C222.5 19.0001 226.667 15.1668 226.667 9.66681C226.667 4.00014 222.5 0.166809 216.5 0.166809H202.333V30.3335Z" fill="#A4A4A4"/>
<path fill-rule="evenodd" clip-rule="evenodd" d="M232.167 0H238.833V24.1667H254.667V30.3333H232.167V0Z" fill="#A4A4A4"/>
<path fill-rule="evenodd" clip-rule="evenodd" d="M259.5 0H281.5V6.5H265.833V11H274.5V17.3333H265.833V24.1667H282V30.3333H259.5V0Z" fill="#A4A4A4"/>
</svg>
