<?xml version="1.0" encoding="utf-8"?>
<!-- Generator: Adobe Illustrator 24.3.0, SVG Export Plug-In . SVG Version: 6.00 Build 0)  -->
<svg version="1.1" id="Layer_1" xmlns="http://www.w3.org/2000/svg" xmlns:xlink="http://www.w3.org/1999/xlink" x="0px" y="0px"
	 viewBox="0 0 107 32.6" style="enable-background:new 0 0 107 32.6;" xml:space="preserve">
<style type="text/css">
	.st0{fill:#343537;}
</style>
<path class="st0" d="M17.9,7.1l0,0.1c-0.5,2.6-1.4,4.1-3,4.8c-0.4,0.2-0.8,0.2-1.2,0.2c-2.1,0-3.1-2-3.5-2.7C9.8,9,9.5,8.2,9.2,7.5
	C8.3,5.5,6.9,3,5.5,3C5.1,3,4.6,3.1,4.1,3.4c-1,0.5-1,1.1-1,1.3C2.9,6.3,4.4,8,6.5,9.9l0.8,0.7c1.2,1.1,2.5,2.3,3.4,3.9
	c0.5,0.9,0.9,1.8,1,2.8c0.1,1.1-0.3,2.1-0.8,3.2c-0.4,0.7-0.8,1.2-1.3,1.8c-1.4,1.6-1.9,3-1.4,4.3c0.3,0.7,1,1.2,1.6,1.3
	c0.3,0,0.5,0.1,0.8,0.1c1.9,0,2.7-1.2,3.2-4.6c0.2-1.4,0.9-2.9,1.5-4.1c0.9-1.6,2.2-2.3,3.8-2.4l0.4,0c1.2,0,2.3,0.5,3.1,1.4
	c0.6,0.7,1,1.5,1.2,2.6c0.2,0.9,0.1,1.9,0,2.8l-0.1,0.8c-0.2,1.5-0.5,3.9,0.2,4.8c0.1,0.1,0.3,0.4,1,0.4l0.3,0c1,0,1.5-0.5,1.7-0.8
	c0.7-0.8,1.1-2.2,0.9-4.4c0-0.4-0.1-0.9-0.2-1.5c-0.2-1.3-0.5-3-0.5-4.5c0.1-2.2,0.6-3.5,2-4.4c0.5-0.3,1-0.4,1.5-0.4
	c1,0,2,0.4,2.7,1.2c0.6,0.7,1,1.4,1.2,1.8c0.3,0.6,0.5,1.3,0.7,1.9c0.4,1.2,0.8,2.3,1.5,3c0.5,0.5,1,0.7,1.5,0.7
	c0.4,0,0.9-0.2,1.3-0.6c0.7-0.7,1-1.7,0.9-2.8c-0.1-1.5-0.7-3.1-1.8-4c-0.5-0.5-1.5-0.8-2.2-1.2c-1.1-0.6-2-1.1-2.8-2.1
	C32.2,10.3,32,8.7,32.5,7l0.1-0.2C33,5.1,33.1,4.4,32.6,4c-0.2-0.2-0.7-0.2-0.7-0.2c-0.3,0-0.6,0.1-0.9,0.5
	c-0.3,0.3-0.5,0.8-0.8,1.3c-0.4,0.7-0.8,1.5-1.5,2.1C27.9,8.5,26.9,9,25.8,9h-0.1c-1.8,0-2.9-1.3-3.3-1.7c-0.3-0.4-0.8-1-1.1-1.5
	c-0.3-0.5-0.7-1.2-1.1-1.6C19,2.8,18.3,5,17.9,7.1 M15,6.7l0-0.1c0.3-1.7,0.6-4.3,2.5-5.4c0.6-0.4,1.3-0.5,2-0.5
	c2.2,0,3.7,2.2,4.6,3.6C24.6,5,25,5.9,25.7,5.9h0c0.6,0,1-0.5,1.8-1.9c0.4-0.6,0.8-1.2,1.2-1.8c0.9-1,1.8-1.4,3-1.4
	c0.9,0,2.1,0.3,2.9,1c0.9,0.8,1.2,1.9,1.2,3.3c0,1-0.3,1.7-0.5,2.5l-0.1,0.2c-0.3,0.9,0,1.6,0.2,1.9c0.5,0.5,1.3,1,2.2,1.5
	c0.8,0.5,1.7,0.7,2.5,1.3c1.7,1.5,2.8,3.8,2.9,6.1c0.1,1.9-0.3,3.5-1.5,4.9c-1,1.1-2.2,1.7-3.5,1.7c-1.3,0-2.4-0.5-3.5-1.5
	c-1.3-1.2-1.8-2.7-2.3-4l-0.6-1.6c-0.3-0.7-0.6-1.4-1.1-1.4s-0.6,1.2-0.6,1.8c0,1.2,0.3,2.7,0.5,3.9l0.3,1.7
	c0.5,5.1-1.9,8.5-5.5,8.5c-0.2,0-0.3,0-0.5,0c-1.7-0.1-2.7-0.9-3.3-1.5c-1.6-1.9-1.1-5-0.8-7.2l0.1-0.8c0.1-1.1-0.1-2.3-0.6-2.9
	c-0.2-0.2-0.4-0.3-0.7-0.3c0,0-0.1,0-0.1,0c-1.2,0.1-1.7,1.3-2.4,4.1c-0.4,1.6-0.8,3.3-1.6,4.6c-1.1,1.7-2.7,2.5-4.8,2.5
	c-0.4,0-0.9,0-1.3-0.1c-0.9-0.1-1.7-0.5-2.5-1.2c-0.7-0.6-1.3-1.3-1.6-2.1c-0.6-1.4-0.6-3.1,0-4.5c0.4-1.1,1-1.7,1.6-2.6
	c0.4-0.6,1-1.2,1.2-1.7c0.5-1,0.7-1.8,0.1-2.8C7.4,15,6.3,13.9,5.2,13l-0.8-0.7C2.1,10.1-0.4,7.6,0,4.4c0.1-1,0.6-2.7,2.6-3.8
	C3.6,0.1,4.6,0,5.5,0c1.6,0,3,0.7,4.2,2.3c0.9,1.2,1.5,2.7,2.1,4C12.6,8.2,14,12.6,15,6.7"/>
<path class="st0" d="M88,19c-0.1-0.2,0-0.3,0.2-0.3H89c0.1,0,0.2,0.1,0.3,0.2l2.2,4.8h0l2.1-4.8c0.1-0.1,0.2-0.2,0.3-0.2h0.7
	c0.2,0,0.3,0.2,0.2,0.4L91,27.2c0,0.1-0.2,0.2-0.3,0.2h-0.6c-0.2,0-0.4-0.2-0.3-0.4l1-2L88,19L88,19z M77,24c0.8,0,1.5-0.4,1.7-0.8
	V22c-0.2-0.2-0.8-0.5-1.5-0.5c-0.9,0-1.5,0.4-1.5,1.2C75.8,23.4,76.3,24,77,24 M77.4,20.6c0.7,0,1.3,0.4,1.3,0.4
	c0-1.2-0.5-1.7-1.4-1.7c-0.9,0-1.3,0.2-1.6,0.4c-0.2,0.1-0.3,0-0.3-0.2l-0.1-0.4c-0.1-0.2,0-0.3,0.2-0.3c0.1,0,0.7-0.4,1.9-0.4
	c1.6,0,2.3,0.8,2.3,2.7v3.5c0,0.2-0.1,0.3-0.3,0.3h-0.4c-0.2,0-0.2-0.1-0.3-0.2l0-0.4c-0.3,0.3-1,0.7-2,0.7c-1.1,0-2.1-0.9-2.1-2.2
	C74.8,21.5,75.8,20.6,77.4,20.6 M67.9,21.1h-3.5c-0.1,0-0.1-0.1-0.1-0.1c0.2-0.9,0.9-1.6,1.9-1.6c0.9,0,1.6,0.7,1.7,1.6
	C68,21.1,67.9,21.2,67.9,21.1 M66.2,18.5c-1.9,0-3.1,1.5-3.1,3.3c0,1.8,1.2,3.3,3.1,3.3c1.1,0,1.9-0.4,2.3-0.7
	c0.2-0.2,0.2-0.3,0.1-0.4l-0.3-0.4c-0.1-0.2-0.2-0.1-0.4,0c-0.4,0.2-0.9,0.5-1.5,0.5c-1.1,0-1.9-0.9-2.1-1.9c0-0.1,0.1-0.1,0.1-0.1
	h4.4c0.1,0,0.3-0.1,0.3-0.3c0-0.1,0-0.3,0-0.4C69,19.7,67.9,18.5,66.2,18.5 M54.9,23.7c-0.1-0.1-0.1-0.2-0.4-0.1c0,0-0.4,0.4-1,0.4
	s-0.7-0.7-0.7-0.8v-3.4c0-0.1,0-0.2,0.2-0.2h1.6c0.2,0,0.3-0.1,0.3-0.3v-0.3c0-0.2-0.1-0.3-0.3-0.3h-1.6c-0.1,0-0.2-0.1-0.2-0.2
	c0,0,0,0,0,0v-1.7c0-0.2-0.1-0.3-0.3-0.3h-0.5c-0.2,0-0.3,0.1-0.3,0.3v1.6c0,0,0,0.2-0.2,0.2H51c-0.2,0-0.3,0.1-0.3,0.3v0.3
	c0,0.2,0.1,0.3,0.3,0.3h0.6c0.1,0,0.2,0.1,0.2,0.2v3.6c0,1,0.6,1.7,1.8,1.7c0.7,0,1.2-0.4,1.4-0.5c0.2-0.1,0.2-0.2,0.1-0.4
	L54.9,23.7L54.9,23.7z M59.4,18.5c-0.9,0-1.5,0.4-1.7,0.7c0,0-0.1,0.1-0.1-0.1v-3c0-0.2-0.1-0.3-0.3-0.3h-0.5
	c-0.2,0-0.3,0.1-0.3,0.3v8.5c0,0.2,0.1,0.3,0.3,0.3h0.5c0.2,0,0.3-0.1,0.3-0.3v-3.4c0-1.2,0.9-1.5,1.4-1.6c0.1,0,0.2,0,0.3,0
	c0.9,0,1.6,0.6,1.6,1.8v3.3c0,0.2,0.1,0.3,0.3,0.3h0.5c0.2,0,0.3-0.1,0.3-0.3v-3.3C62.1,19.5,61,18.5,59.4,18.5 M84.2,24
	c-0.9,0-1.5-0.6-1.5-0.6v-3.3c0,0,0.6-0.8,1.6-0.8c1.3,0,2,1.1,2,2.3C86.2,23,85.4,24,84.2,24 M84.4,18.4c-0.6,0-1.2,0.2-1.7,0.6v0
	c0-0.2-0.1-0.3-0.3-0.3h-0.5c-0.2,0-0.3,0.1-0.3,0.3v8.1c0,0.2,0.1,0.3,0.3,0.3h0.5c0.2,0,0.3-0.1,0.3-0.3v-2.5c0,0,0.7,0.5,1.7,0.5
	c1.7,0,3-1.5,3-3.3C87.4,19.9,86.1,18.4,84.4,18.4 M73.2,18.4c-1,0-1.6,0.5-1.8,0.7v-0.2c0-0.2-0.1-0.3-0.3-0.3h-0.5
	c-0.2,0-0.3,0.1-0.3,0.3v5.6c0,0.2,0.1,0.3,0.3,0.3h0.5c0.2,0,0.3-0.1,0.3-0.3v-4.2c0,0,0.5-0.9,1.7-0.9c0.2,0,0.4,0,0.6,0.1
	c0.2,0.1,0.3,0.1,0.4-0.1l0.2-0.5C74.5,18.5,73.7,18.4,73.2,18.4 M94,9.9h-3.5c-0.1,0-0.1-0.1-0.1-0.1c0.2-0.9,0.9-1.6,1.9-1.6
	c0.9,0,1.6,0.7,1.7,1.6C94.1,9.8,94.1,9.9,94,9.9 M92.3,7.2c-1.9,0-3.1,1.5-3.1,3.3c0,1.8,1.2,3.3,3.1,3.3c1.1,0,1.9-0.4,2.3-0.7
	c0.2-0.2,0.2-0.3,0.1-0.4l-0.3-0.4c-0.1-0.2-0.2-0.1-0.4,0c-0.4,0.2-0.9,0.5-1.5,0.5c-1.1,0-1.9-0.9-2.1-1.9c0-0.1,0.1-0.1,0.1-0.1
	h4.4c0.1,0,0.3-0.1,0.3-0.3c0-0.1,0-0.3,0-0.4C95.2,8.4,94,7.2,92.3,7.2 M106.8,12.4c-0.1-0.1-0.1-0.2-0.4-0.1c0,0-0.4,0.4-1,0.4
	s-0.7-0.7-0.7-0.8V8.5c0-0.1,0-0.2,0.2-0.2h1.6c0.2,0,0.3-0.1,0.3-0.3V7.6c0-0.2-0.1-0.3-0.3-0.3H105c-0.1,0-0.2-0.1-0.2-0.2
	c0,0,0,0,0,0V5.5c0-0.2-0.1-0.3-0.3-0.3H104c-0.2,0-0.3,0.1-0.3,0.3v1.6c0,0,0,0.2-0.2,0.2h-0.6c-0.2,0-0.3,0.1-0.3,0.3V8
	c0,0.2,0.1,0.3,0.3,0.3h0.6c0.1,0,0.2,0.1,0.2,0.2V12c0,1,0.6,1.7,1.8,1.7c0.7,0,1.2-0.4,1.4-0.5c0.2-0.1,0.2-0.2,0.1-0.4
	L106.8,12.4L106.8,12.4z M99.2,7.2c-0.9,0-1.5,0.4-1.7,0.7c0,0-0.1,0.1-0.1-0.1V7.6c0-0.2-0.1-0.3-0.3-0.3h-0.5
	c-0.2,0-0.3,0.1-0.3,0.3v5.7c0,0.2,0.1,0.3,0.3,0.3h0.5c0.2,0,0.3-0.1,0.3-0.3V9.9c0-1.2,0.9-1.5,1.4-1.6c0.1,0,0.2,0,0.3,0
	c0.9,0,1.6,0.6,1.6,1.8v3.3c0,0.2,0.1,0.3,0.3,0.3h0.5c0.2,0,0.3-0.1,0.3-0.3V10C101.9,8.2,100.8,7.2,99.2,7.2 M49.8,12.7
	c0.8,0,1.5-0.4,1.7-0.8v-1.2c-0.2-0.2-0.8-0.5-1.5-0.5c-0.9,0-1.5,0.4-1.5,1.2C48.6,12.1,49.1,12.7,49.8,12.7 M50.2,9.4
	c0.7,0,1.3,0.4,1.3,0.4c0-1.2-0.5-1.7-1.4-1.7c-0.9,0-1.3,0.2-1.6,0.4c-0.2,0.1-0.3,0-0.3-0.2l-0.1-0.4c-0.1-0.2,0-0.3,0.2-0.3
	c0.1,0,0.7-0.4,1.9-0.4c1.6,0,2.3,0.8,2.3,2.7v3.5c0,0.2-0.1,0.3-0.3,0.3h-0.4c-0.2,0-0.2-0.1-0.3-0.2l0-0.4c-0.3,0.3-1,0.7-2,0.7
	c-1.1,0-2.1-0.9-2.1-2.2C47.6,10.2,48.6,9.3,50.2,9.4 M63.1,12.7c0.8,0,1.5-0.4,1.7-0.8v-1.2c-0.2-0.2-0.8-0.5-1.5-0.5
	c-0.9,0-1.5,0.4-1.5,1.2C61.9,12.1,62.4,12.7,63.1,12.7 M63.5,9.3c0.7,0,1.3,0.4,1.3,0.4c0-1.2-0.5-1.7-1.4-1.7
	c-0.9,0-1.3,0.2-1.6,0.4c-0.2,0.1-0.3,0-0.3-0.2l-0.1-0.4c-0.1-0.2,0-0.3,0.2-0.3c0.1,0,0.7-0.4,1.9-0.4c1.6,0,2.3,0.8,2.3,2.7v3.5
	c0,0.2-0.1,0.3-0.3,0.3h-0.4c-0.2,0-0.2-0.1-0.3-0.2l0-0.4c-0.3,0.3-1,0.7-2,0.7c-1.1,0-2.1-0.9-2.1-2.2
	C60.9,10.2,61.9,9.3,63.5,9.3 M76.5,12.4c-0.1-0.1-0.1-0.2-0.4-0.1c0,0-0.4,0.4-1,0.4s-0.7-0.7-0.7-0.8V8.5c0-0.1,0-0.2,0.2-0.2h1.6
	c0.2,0,0.3-0.1,0.3-0.3V7.6c0-0.2-0.1-0.3-0.3-0.3h-1.6c-0.1,0-0.2-0.1-0.2-0.2c0,0,0,0,0,0V5.5c0-0.2-0.1-0.3-0.3-0.3h-0.5
	c-0.2,0-0.3,0.1-0.3,0.3v1.6c0,0,0,0.2-0.2,0.2h-0.6c-0.2,0-0.3,0.1-0.3,0.3V8c0,0.2,0.1,0.3,0.3,0.3h0.6c0.1,0,0.2,0.1,0.2,0.2V12
	c0,1,0.6,1.7,1.8,1.7c0.7,0,1.2-0.4,1.4-0.5c0.2-0.1,0.2-0.2,0.1-0.4L76.5,12.4L76.5,12.4z M56.8,12.7c-0.9,0-1.5-0.6-1.5-0.6V8.9
	c0,0,0.6-0.8,1.6-0.8c1.3,0,2,1.1,2,2.3C58.9,11.7,58,12.7,56.8,12.7 M57,7.1c-0.6,0-1.2,0.2-1.7,0.6v0c0-0.2-0.1-0.3-0.3-0.3h-0.5
	c-0.2,0-0.3,0.1-0.3,0.3v8.1c0,0.2,0.1,0.3,0.3,0.3H55c0.2,0,0.3-0.1,0.3-0.3v-2.5c0,0,0.7,0.5,1.7,0.5c1.7,0,3-1.5,3-3.3
	C60,8.6,58.7,7.1,57,7.1 M70.4,7.1c-1,0-1.6,0.5-1.8,0.7V7.6c0-0.2-0.1-0.3-0.3-0.3h-0.5c-0.2,0-0.3,0.1-0.3,0.3v5.7
	c0,0.2,0.1,0.3,0.3,0.3h0.5c0.2,0,0.3-0.1,0.3-0.3V9.1c0,0,0.5-0.9,1.7-0.9c0.2,0,0.4,0,0.6,0.1c0.2,0.1,0.3,0.1,0.4-0.1l0.2-0.5
	C71.6,7.2,70.8,7.1,70.4,7.1 M85.5,7.2c-1,0-1.8,0.5-2.2,1.3C82.8,7.6,82,7.2,81,7.2c-0.9,0-1.5,0.4-1.7,0.7c0,0-0.1,0.1-0.1-0.1
	V7.6c0-0.2-0.1-0.3-0.3-0.3h-0.5c-0.2,0-0.3,0.1-0.3,0.3v5.7c0,0.2,0.1,0.3,0.3,0.3h0.5c0.2,0,0.3-0.1,0.3-0.3V9.9
	c0-1.2,0.9-1.5,1.4-1.6c0.1,0,0.2,0,0.3,0c0.9,0,1.6,0.6,1.6,1.8v3.3c0,0.2,0.1,0.3,0.3,0.3h0.5c0.2,0,0.3-0.1,0.3-0.3V9.9
	c0-1.2,0.9-1.5,1.4-1.6c0.1,0,0.2,0,0.3,0c0.9,0,1.6,0.6,1.6,1.8v3.3c0,0.2,0.1,0.3,0.3,0.3h0.5c0.2,0,0.3-0.1,0.3-0.3V10
	C88.2,8.2,87.1,7.2,85.5,7.2"/>
</svg>
