<?xml version="1.0" encoding="utf-8"?>
<!-- Generator: Adobe Illustrator 24.3.0, SVG Export Plug-In . SVG Version: 6.00 Build 0)  -->
<svg version="1.1" id="Layer_1" xmlns="http://www.w3.org/2000/svg" xmlns:xlink="http://www.w3.org/1999/xlink" x="0px" y="0px"
	 viewBox="0 0 180 56.8" style="enable-background:new 0 0 180 56.8;" xml:space="preserve">
<style type="text/css">
	.st0{fill-rule:evenodd;clip-rule:evenodd;fill:#343537;}
</style>
<path class="st0" d="M55.8,0.3c1.5-0.4,3-0.4,4.5-0.2C62,0.4,63.6,0.9,65,1.8c0,1.3,0,2.6,0,3.9c-0.9-0.7-1.8-1.3-2.9-1.7
	c-1.4-0.6-2.9-0.8-4.3-0.7c-0.7,0.1-1.4,0.2-2,0.6c-0.4,0.2-0.8,0.6-1,1c-0.3,0.5-0.3,1.1-0.2,1.7c0.1,0.5,0.4,1,0.8,1.3
	c0.5,0.4,1.2,0.7,1.8,0.9c1.3,0.5,2.6,1,4,1.4c1.1,0.4,2.2,1,3.1,1.8c0.9,0.8,1.5,1.8,1.7,2.9c0.2,1.2,0.3,2.4,0,3.5
	c-0.3,1-0.9,2-1.7,2.7c-0.9,0.8-1.9,1.3-3,1.6c-1.5,0.4-3.1,0.5-4.6,0.3c-1.9-0.2-3.9-0.8-5.5-1.9c0-1.3,0-2.7,0-4
	c1.9,1.6,4.4,2.6,6.9,2.6c1.1,0,2.2-0.1,3.1-0.6c0.5-0.3,1-0.7,1.2-1.3c0.2-0.6,0.2-1.3,0-2c-0.2-0.6-0.7-1.1-1.3-1.4
	c-1-0.6-2.1-0.9-3.2-1.3c-1.3-0.5-2.6-0.9-3.8-1.6c-0.9-0.5-1.8-1.2-2.3-2.1c-0.8-1.2-1-2.7-0.8-4.1c0.1-1.3,0.8-2.6,1.7-3.4
	C53.6,1.1,54.7,0.6,55.8,0.3L55.8,0.3z"/>
<path class="st0" d="M144.4,1.3c1.5-1,3.4-1.3,5.2-1.3c2.2,0,4.5,0.6,6.4,1.8c0,1.3,0,2.6,0,3.9c-0.8-0.6-1.7-1.2-2.6-1.6
	c-1.6-0.7-3.4-1-5.2-0.7c-0.9,0.2-1.9,0.6-2.4,1.4c-0.5,1-0.3,2.3,0.5,3c0.6,0.6,1.5,0.9,2.3,1.1c1.3,0.5,2.6,0.9,3.9,1.4
	c1.2,0.5,2.3,1.1,3.1,2c0.8,0.8,1.3,1.9,1.5,3c0.2,1.2,0.1,2.5-0.4,3.7c-0.4,1-1.1,1.8-2,2.5c-1,0.7-2.2,1.1-3.5,1.4
	c-1.7,0.3-3.5,0.2-5.2-0.2c-1.4-0.3-2.8-0.8-4-1.7c0-1.3,0-2.7,0-4c1.5,1.2,3.3,2.1,5.3,2.4c0.8,0.2,1.7,0.2,2.5,0.1
	c0.9-0.1,1.7-0.2,2.5-0.7c0.6-0.4,1-0.9,1.1-1.6c0.1-0.8,0-1.7-0.5-2.3c-0.5-0.5-1.1-0.9-1.8-1.2c-1.1-0.4-2.1-0.8-3.2-1.2
	c-1-0.4-2.1-0.7-3-1.3c-0.9-0.5-1.7-1.2-2.2-2.1c-0.5-0.9-0.8-1.9-0.8-2.9c-0.1-0.9,0.1-1.8,0.4-2.7C142.7,2.8,143.5,1.9,144.4,1.3
	L144.4,1.3z"/>
<path class="st0" d="M168.8,0.6c1.1-0.4,2.2-0.6,3.3-0.6c2.3,0,4.6,0.5,6.6,1.7c0.1,0,0.1,0.1,0.1,0.2c0,1.3,0,2.5,0,3.8
	c-0.9-0.7-1.9-1.3-2.9-1.7c-1.3-0.5-2.8-0.8-4.2-0.7c-0.7,0.1-1.5,0.2-2.1,0.6c-0.5,0.3-0.9,0.7-1.1,1.1c-0.4,1-0.2,2.2,0.6,2.8
	c0.9,0.7,2,1,3.1,1.4c1.2,0.5,2.5,0.9,3.7,1.4c1.1,0.5,2.2,1.2,2.9,2.2c0.8,1.1,1.1,2.4,1.1,3.7c0,1.2-0.3,2.4-0.9,3.3
	c-0.7,1-1.6,1.7-2.7,2.2c-1.2,0.5-2.4,0.8-3.7,0.8c-1.4,0.1-2.8-0.1-4.2-0.4c-1.3-0.3-2.5-0.8-3.6-1.5c0-1.3,0-2.7,0-4
	c1.9,1.6,4.4,2.6,6.9,2.6c1.1,0,2.2-0.1,3.2-0.6c0.5-0.3,0.9-0.7,1.1-1.3c0.2-0.6,0.2-1.4,0-2c-0.2-0.6-0.7-1.1-1.3-1.4
	c-1-0.6-2.1-0.9-3.2-1.3c-1.3-0.5-2.6-0.9-3.8-1.6c-1-0.5-1.8-1.3-2.4-2.3c-0.6-1-0.8-2.3-0.8-3.5c0-1.1,0.4-2.2,1.1-3.1
	C166.5,1.7,167.6,1,168.8,0.6L168.8,0.6z"/>
<path class="st0" d="M90.5,0c5.1,4.9,10.2,9.8,15.4,14.7c0-4.8,0-9.5,0-14.3c1.2,0,2.4,0,3.7,0c0,7.6,0,15.2,0,22.8
	c-3.4-3.4-6.9-6.7-10.4-10.1c-1.7-1.6-3.3-3.2-5-4.8c0,4.8,0,9.7,0,14.5c-1.2,0-2.4,0-3.7,0C90.5,15.2,90.5,7.6,90.5,0L90.5,0z"/>
<path class="st0" d="M0,0.4c2,0,3.9,0,5.9,0c1.4,0,2.8-0.1,4.1,0.2c1.3,0.2,2.6,0.7,3.6,1.6c0.8,0.7,1.4,1.7,1.6,2.7
	c0.3,1.2,0.3,2.4-0.1,3.6c-0.4,1.2-1.3,2.3-2.5,2.8c0.2,0.1,0.4,0.2,0.6,0.3c1.1,0.6,2,1.6,2.5,2.7c0.4,0.9,0.5,1.8,0.4,2.8
	c-0.1,1.2-0.5,2.4-1.3,3.4c-0.9,1.1-2.2,1.8-3.5,2.1c-1.2,0.3-2.3,0.3-3.5,0.3c-2.6,0-5.2,0-7.8,0C0,15.3,0,7.8,0,0.4L0,0.4z
	 M3.7,3.7c0,2,0,4.1,0,6.1c1.5,0,3,0,4.5,0c0.9,0,2-0.2,2.7-0.9c0.5-0.5,0.8-1.2,0.9-1.9c0.1-0.8-0.1-1.6-0.6-2.2
	C10.7,4.2,10,4,9.3,3.8C8.6,3.7,7.8,3.7,7,3.7C5.9,3.7,4.8,3.7,3.7,3.7L3.7,3.7z M3.7,12.9c0,2.2,0,4.4,0,6.5c1.6,0,3.2,0,4.8,0
	c0.9,0,1.8-0.2,2.6-0.7c0.7-0.4,1.1-1.1,1.2-1.9c0.2-0.8,0.1-1.7-0.4-2.5c-0.4-0.6-1-1-1.6-1.2c-0.6-0.2-1.2-0.3-1.9-0.3
	C6.9,12.9,5.3,12.9,3.7,12.9L3.7,12.9z"/>
<path class="st0" d="M24.3,0.4c1.3,0,2.5,0,3.8,0c0,3.9,0,7.7,0,11.6c0,1.4-0.1,2.7,0.3,4.1c0.3,1.1,0.8,2.1,1.7,2.8
	c0.9,0.7,2,0.9,3.2,0.9c1.1,0,2.3-0.2,3.2-0.9c0.8-0.6,1.3-1.4,1.6-2.3c0.3-1.1,0.4-2.2,0.4-3.3c0-4.3,0-8.6,0-12.8
	c1.3,0,2.5,0,3.8,0c0,4.5,0,8.9,0,13.4c0,1.8-0.3,3.7-1.2,5.3c-0.8,1.4-2,2.6-3.5,3.2c-1.7,0.7-3.6,0.9-5.4,0.8
	c-1.3-0.1-2.5-0.4-3.7-1c-0.8-0.4-1.6-1-2.2-1.8c-0.7-0.8-1.2-1.9-1.5-2.9c-0.4-1.2-0.5-2.5-0.5-3.7C24.3,9.2,24.3,4.8,24.3,0.4
	L24.3,0.4z"/>
<path class="st0" d="M75.9,0.4c1.3,0,2.5,0,3.8,0c0,7.5,0,14.9,0,22.4c-1.3,0-2.5,0-3.8,0C75.9,15.3,75.9,7.8,75.9,0.4L75.9,0.4z"/>
<path class="st0" d="M119.7,0.4c4.5,0,9,0,13.6,0c0,1.1,0,2.3,0,3.4c-3.3,0-6.6,0-9.8,0c0,1.8,0,3.6,0,5.4c2.9,0,5.9,0,8.8,0
	c0,1.1,0,2.2,0,3.3c-2.9,0-5.9,0-8.8,0c0,2.3,0,4.6,0,6.9c3.3,0,6.6,0,9.8,0c0,1.1,0,2.3,0,3.4c-4.5,0-9,0-13.6,0
	c0-6.1,0-12.1,0-18.2C119.7,3.2,119.6,1.8,119.7,0.4L119.7,0.4z"/>
<path class="st0" d="M29.6,34.1c5.1,4.8,10.2,9.6,15.3,14.4c0-4.7,0-9.4,0-14.1c1.2,0,2.4,0,3.6,0c0,7.5,0,14.9,0,22.4
	c-5.1-4.9-10.2-9.8-15.2-14.7c0,4.8,0,9.5,0,14.3c-1.2,0-2.4,0-3.6,0C29.6,49,29.5,41.5,29.6,34.1L29.6,34.1z"/>
<path class="st0" d="M61.4,34.9c1.4-0.7,3-0.9,4.6-0.8c2.1,0.1,4.2,0.6,6,1.8c0,1.3,0,2.6,0,3.9c-0.9-0.7-1.8-1.3-2.9-1.7
	c-1.4-0.6-2.9-0.8-4.3-0.7c-0.7,0.1-1.4,0.2-2,0.6c-0.5,0.3-0.8,0.7-1,1.2c-0.3,0.9-0.1,1.9,0.5,2.5c0.5,0.5,1.2,0.8,1.9,1.1
	c1.3,0.5,2.7,1,4,1.4c1.1,0.4,2.1,0.9,3,1.6c0.9,0.7,1.5,1.7,1.8,2.8c0.3,1.1,0.3,2.2,0.1,3.4c-0.2,1.1-0.8,2.1-1.6,2.8
	c-0.8,0.8-1.9,1.3-3,1.7c-1.4,0.4-2.8,0.5-4.3,0.4c-1.5-0.1-3-0.4-4.3-1c-0.6-0.3-1.2-0.5-1.7-0.9c0-1.3,0-2.6,0-3.9
	c1.9,1.6,4.4,2.5,6.9,2.6c1.1,0,2.2-0.1,3.1-0.6c0.6-0.3,1-0.8,1.2-1.4c0.2-0.6,0.2-1.3-0.1-1.9c-0.2-0.6-0.8-1.1-1.3-1.4
	c-1-0.5-2-0.9-3.1-1.2c-1.2-0.4-2.4-0.8-3.5-1.4c-1-0.5-1.9-1.3-2.5-2.2c-0.6-1-0.9-2.2-0.8-3.3c0-1.1,0.3-2.2,0.9-3.1
	C59.5,36,60.4,35.3,61.4,34.9L61.4,34.9z"/>
<path class="st0" d="M15,34.4c1.3,0,2.5,0,3.8,0c0,7.4,0,14.7,0,22.1c-1.3,0-2.5,0-3.8,0C15,49.1,15,41.8,15,34.4L15,34.4z"/>
<path class="st0" d="M82.8,34.4c1.3,0,2.5,0,3.8,0c0,7.4,0,14.7,0,22.1c-1.3,0-2.5,0-3.8,0C82.8,49.1,82.8,41.8,82.8,34.4L82.8,34.4
	z"/>
<path class="st0" d="M97.6,34.4c2.9,0,5.8,0,8.7,0c2.3,0,4.6,0.6,6.4,2c1.6,1.1,2.7,2.7,3.4,4.5c0.5,1.5,0.8,3.1,0.7,4.7
	c0,2.3-0.5,4.6-1.8,6.5c-1,1.6-2.6,2.9-4.4,3.6c-1.4,0.6-2.9,0.8-4.4,0.8c-2.9,0-5.8,0-8.7,0C97.6,49.1,97.6,41.8,97.6,34.4
	L97.6,34.4z M101.4,37.7c0,5.1,0,10.3,0,15.4c1.2,0,2.4,0,3.6,0c0.7,0,1.5,0,2.2-0.1c1.4-0.2,2.8-0.7,3.8-1.7c0.9-0.8,1.5-2,1.8-3.2
	c0.3-1.2,0.4-2.4,0.3-3.6c-0.1-1.1-0.3-2.2-0.8-3.2c-0.4-1-1.1-1.8-2-2.4c-1-0.7-2.2-1.1-3.4-1.2c-0.7-0.1-1.5,0-2.2-0.1
	C103.6,37.7,102.5,37.7,101.4,37.7L101.4,37.7z"/>
<path class="st0" d="M124.8,34.4c4.5,0,9,0,13.5,0c0,1.1,0,2.2,0,3.3c-3.3,0-6.5,0-9.8,0c0,1.8,0,3.5,0,5.3c2.9,0,5.8,0,8.7,0
	c0,1.1,0,2.2,0,3.3c-2.9,0-5.8,0-8.7,0c0,2.3,0,4.6,0,6.8c3.3,0,6.5,0,9.8,0c0,1.1,0,2.2,0,3.3c-4.5,0-9,0-13.5,0
	C124.8,49.1,124.8,41.8,124.8,34.4L124.8,34.4z"/>
<path class="st0" d="M149.5,34.4c2.8,0,5.5,0,8.3,0c1.4,0,2.8,0.2,4,0.9c1,0.5,1.8,1.2,2.4,2.1c0.7,1.1,1,2.4,0.9,3.7
	c0,1.3-0.2,2.7-0.9,3.8c-0.5,0.9-1.3,1.5-2.2,1.9c-0.7,0.3-1.4,0.5-2.1,0.6c2.7,3,5.3,6,8,9.1c-1.4,0-2.9,0-4.3,0
	c-2.6-3-5.1-6-7.7-8.9c-0.9,0-1.8,0-2.6,0c0,3,0,6,0,8.9c-1.3,0-2.5,0-3.8,0C149.5,49.1,149.5,41.8,149.5,34.4L149.5,34.4z
	 M153.3,37.7c0,2.2,0,4.5,0,6.7c1.5,0,2.9,0,4.4,0c1,0,2-0.3,2.8-1c0.5-0.5,0.8-1.1,0.9-1.8c0.1-0.8,0-1.8-0.5-2.5
	c-0.4-0.7-1.2-1.1-2-1.3c-0.8-0.2-1.6-0.2-2.4-0.2C155.4,37.7,154.4,37.7,153.3,37.7L153.3,37.7z"/>
</svg>
