<?xml version="1.0" encoding="utf-8"?>
<!-- Generator: Adobe Illustrator 24.3.0, SVG Export Plug-In . SVG Version: 6.00 Build 0)  -->
<svg version="1.1" id="Layer_1" xmlns="http://www.w3.org/2000/svg" xmlns:xlink="http://www.w3.org/1999/xlink" x="0px" y="0px"
	 viewBox="0 0 370 96.8" style="enable-background:new 0 0 370 96.8;" xml:space="preserve">
<style type="text/css">
	.st0{fill:#343537;enable-background:new    ;}
</style>
<g>
	<path id="XMLID_9_" class="st0" d="M179.2,26.3c-3.1,0-4.8,0.3-7.3,1.5c-4.6,2.1-8,5.5-11,11l-1,1.7l0.1-3.1c0.1-1.7,0.2-4.8,0.3-7
		l0.1-3.9h-0.7c-0.8,0-27.2,5.3-28,5.6c-0.5,0.2-0.6,0.4-0.6,1.7c0,1.3,0.1,1.5,0.6,1.6c0.3,0.1,1.5,0.3,2.7,0.5
		c2.3,0.4,3,0.8,4,2.1c1.8,2.3,2.1,6.5,2.1,24c0,14.3-0.3,21.5-1,23.7c-0.8,2.7-2.3,4.1-4.9,4.6c-0.8,0.2-1.9,0.4-2.4,0.5l-0.9,0.2
		l-0.1,1.8c-0.1,1.3,0,1.9,0.3,2.1c0.2,0.1,9.2,0.2,20,0.2l19.7-0.1l0.1-2.1c0-1.1,0-2.1-0.1-2.1c-1.5,0-6.2-0.6-7-1
		c-2.2-0.9-3.3-2.9-3.8-7c-0.5-4.7-0.9-16.6-0.7-26.2c0.2-9.8,0.2-9.8,0.8-10.5c1.4-1.5,5-2.7,8.3-2.7c2.6,0,5.3,0.7,8.1,2
		c1.4,0.7,2.6,1.1,2.8,1.1c0.4-0.1,6.8-17.2,6.8-18C186.5,27.5,182.8,26.3,179.2,26.3z"/>
	<path class="st0" d="M131.2,56c-1.4-11.8-6.4-20.4-14.7-25.3c-9.2-5.4-23.1-5.7-33-0.7c-7.2,3.6-13,10.5-15.6,18.5
		c-2.7,8.2-2.7,19,0,27.3c1.7,5.4,4,9.3,7.6,12.8c4.3,4.3,9.9,7,16.4,7.9c2.3,0.3,9.6,0.3,12,0c1.1-0.2,3.1-0.6,4.3-0.9
		c11.7-3.4,19.7-12.4,22.4-25.2C131.3,67.2,131.6,59.6,131.2,56z M101.6,91.4c-7.3,2.2-12.5-4.8-14.5-19.3c-0.7-4.7-0.6-17.5,0-22.8
		c1.4-11.7,5-17.6,10.7-17.6c2.6,0,4,0.6,6,2.6c4.8,4.8,7,14,7,28.4c0,11.5-1.2,18.7-3.7,23.6C105.8,88.6,103.5,90.8,101.6,91.4z"/>
	<path id="XMLID_6_" class="st0" d="M35.2,9h8.4c9.6,0,11.2,0.2,14.6,1.9c4.9,2.4,8.5,7.2,11.7,15.6c1.3,3.4,1.3,3.4,4.1,2.5
		l1.9-0.6l-0.2-12.3c-0.1-6.8-0.2-12.8-0.3-13.3l-0.2-1.1L38.5,1.7c-20.2,0-37.1,0-37.6,0.1L0,1.9l0.1,2.2l0.1,2.2l2.8,0.3
		C6.6,7,8.7,8,10,9.9c2.9,4.2,3.4,10,3.4,37.3c0,29.1-0.6,36.2-3.4,39.8c-1.4,1.9-2.6,2.5-5.9,3.1C-0.1,91,0,90.9,0,93.1
		c0,1.2,0.1,1.9,0.3,2c0.5,0.2,47.4,0.2,47.9,0c0.6-0.2,0.6-3.7,0-4c-0.3-0.1-1.8-0.4-3.5-0.7c-1.7-0.3-3.5-0.7-4.1-0.9
		c-3.1-1.3-4.8-5-5.4-11.7c-0.5-4.8-0.8-13.7-0.8-20.2v-6l2.9,0.1c6.1,0.2,9.2,0.5,10.5,1.1c2.8,1.2,5,4.6,6.1,9.4l0.6,2.5l2.2,0.1
		l2.2,0.1v-32l-2.2,0.1l-2.2,0.1l-0.6,2.5c-1.2,4.9-3.2,7.9-6.2,9.3c-1.2,0.6-2.1,0.7-4.9,0.9c-1.9,0.1-4.6,0.2-5.9,0.2l-2.5,0
		l0-7.9c0-7.9,0.4-24.8,0.7-27.4L35.2,9z"/>
	<path id="XMLID_5_" class="st0" d="M368.3,65.4c-2.2-4.5-6.4-7.5-15-11.1c-7-2.9-10.6-5-12.7-7.3c-1.8-1.9-2.3-3.5-2.1-6.3
		c0.2-2.6,0.8-4.2,2.5-6c2.1-2.3,5.1-3.1,8.6-2.3c5.7,1.2,9.4,5.2,12.6,13.6c1.1,3,1.3,3.1,3.3,2.3l1.3-0.5l0-3.5
		c0-1.9-0.1-5.9-0.2-8.9l-0.2-5.4l-1-0.4c-5.3-2.2-15.3-3.6-21.8-3c-7.4,0.7-12.9,3-17.1,7.4c-4.2,4.3-6.1,9.4-5.7,15.4
		c0.3,5,1.7,8.5,4.8,11.7c2.8,2.9,5.2,4.3,12.1,7c11,4.3,14,6.9,13.9,12.2c0,4.5-2.4,7.8-6.7,9.3c-1.6,0.5-5.5,0.5-7.6,0
		c-5.5-1.4-9.7-6.2-13.3-15l-0.9-2.3l-1.1,0.1c-0.6,0-1.4,0.2-1.8,0.4l-0.7,0.4l0.1,3.9c0,2.1,0.1,6.6,0.2,9.9l0.2,6.1l1.2,0.5
		c2.5,1.1,10.1,2.7,14.8,3.2c0.6,0.1,3.8,0.1,7.2,0c5.8-0.1,6.3-0.1,9.2-0.9c8.7-2.3,14.3-7.1,16.8-14.4c0.8-2.3,0.9-2.9,1-6.3
		C370.1,70.6,369.7,68.3,368.3,65.4z"/>
	<path class="st0" d="M301.2,29c-7.3-3.7-18.6-3.4-26.8,0.6c-7.8,3.8-13.2,10.2-16.2,19.2c-1.6,4.7-2.1,8.4-1.9,14.5
		c0.1,3.8,0.3,5.8,0.7,7.6c3.1,13.8,12.5,23.1,25.7,25.5c2.9,0.5,9.5,0.5,12.4,0c4.2-0.7,9-2.6,12.1-4.7c3.7-2.5,7.5-6.3,7.5-7.5
		c0-0.7-1.3-2.4-1.8-2.4c-0.2,0-1.3,0.5-2.3,1.2c-3.6,2.4-7.1,3.3-12,3.3c-6.7,0-10.9-1.7-15.2-6c-1.9-1.9-2.7-2.9-3.6-4.8
		c-2.1-4.1-3.3-8.9-3.5-14.3l-0.1-2.3l19.7-0.1l19.7-0.1l0.1-1.3c0-0.7,0-2.6-0.2-4.3C314.3,41.4,309.4,33.2,301.2,29z M281.4,53.3
		l-5,0.1l0-1.1c0-0.6,0.2-2.2,0.4-3.5c1.7-10.7,5.7-17.1,10.7-17.1c4.6,0,7.4,6.3,8,17.9l0.2,3.3L291,53
		C288.5,53.1,284.1,53.2,281.4,53.3z"/>
	<path class="st0" d="M229.9,27.8c-1.6-0.3-3-0.4-6-0.3c-4.6,0.2-7.7,0.8-11.2,2.4c-1.1,0.5-2.1,1-2.2,1c-0.1,0-0.1-6.9,0-15.4
		c0.1-12,0.1-15.4-0.2-15.4c-0.9,0-28,5.2-28.3,5.4c-0.2,0.2-0.3,0.8-0.3,1.6c0.1,1.5-0.1,1.4,3.2,2.1c1,0.2,2.2,0.7,2.6,1
		c1.1,0.8,2,2.5,2.7,4.9c0.5,1.9,0.6,3.3,0.8,16.3c0.2,13.3,0.2,27-0.2,52l-0.2,10.4l1.9,0.4c2.8,0.6,10.9,2,13.5,2.3
		c3.9,0.4,12.9,0.3,15.8-0.1c12.5-1.9,21.9-9.1,26.3-20.2c1.2-2.9,2.3-7.5,2.7-10.8c0.5-3.9,0.2-11.8-0.5-15
		C247.7,38.3,240.1,29.9,229.9,27.8z M210.9,90.5c-0.3-0.9-0.7-32.1-0.6-44.5l0.1-9.7l1.8-0.5c1.2-0.3,2.6-0.5,4.2-0.5
		c2.3,0,2.5,0.1,4.4,1c4.6,2.3,7.7,7.9,9.2,16.4c0.5,3.2,0.6,11.8,0.1,15.6c-1.2,9.3-4.2,16.8-8.3,20.4c-1.6,1.4-3.1,2.2-5,2.6
		c-1.4,0.3-1.8,0.3-4.4,0.1C211.4,91.2,211.2,91.1,210.9,90.5z"/>
</g>
</svg>
