<?xml version="1.0" encoding="utf-8"?>
<!-- Generator: Adobe Illustrator 24.3.0, SVG Export Plug-In . SVG Version: 6.00 Build 0)  -->
<svg version="1.1" id="Layer_1" xmlns="http://www.w3.org/2000/svg" xmlns:xlink="http://www.w3.org/1999/xlink" x="0px" y="0px"
	 viewBox="0 0 990.3 229.9" style="enable-background:new 0 0 990.3 229.9;" xml:space="preserve">
<style type="text/css">
	.st0{fill:#FFFFFF;}
	.st1{fill:#353535;}
	.st2{fill:#343537;}
</style>
<g>
	<g>
		<g>
			<path class="st0" d="M539.1,114.7c-0.4-0.1-0.7-0.1-1.1-0.2c0-5.5-0.2-11.1,0.1-16.6c0.2-4.3-0.5-6.2-5.5-4.5
				c-5.3,1.8-10.9,3-16.4,4.2c-2.9,0.6-4,2-4,5.1c0.2,13.8-0.5,27.7,0.3,41.5c0.6,11.1-5.4,17.4-13.5,22.5
				c-7.7,4.9-14.3,1.5-15.5-7.5c-0.5-3.8-0.5-7.6-0.5-11.5c0-36-0.1-71.9,0.1-107.9c0-4.4-0.9-5.5-5.3-4.2
				c-7.3,2.2-14.7,4.1-22.2,5.8c-3.9,0.8-5.3,2.4-5.3,6.6c0.2,27.3,0.2,54.6,0.1,81.9c-0.1,17.6-11.1,30.8-28.3,34.3
				c-17.6,3.6-29.5-3.6-34.8-20.9c-0.3-1.1-0.7-2.2-0.9-3.4c-5.9-33-2.4-64.7,14.1-94.3c8.5-15.3,20.7-27,37.3-33.2
				c17.3-6.5,34.9-7.1,52,0.5c7,3.1,12,8.5,12.5,16.7c0.5,8-2.6,13.9-10.1,17.2c-0.5,0.2-0.9,2.5-0.4,3c3.1,3.1,6.5,5.7,9.5,8.8
				c2.4,2.5,4,1.8,6.2-0.2c11.9-10.8,13.3-29.1,2.9-41.5c-6.3-7.6-14.6-12.3-24.1-14.2c-30.2-6.3-58.7-1.2-84.7,15.5
				c-41.1,26.3-63.1,87.9-48.3,134.5c5.2,16.4,15.3,28.3,32.4,33.1c25.2,7.1,48.7-2.7,61.7-25.7c0.9-1.6,1.8-3.3,2.9-5.3
				c2,6.2,3.5,11.9,5.7,17.1c4.1,9.4,11.4,14.3,21.8,15c10.3,0.8,18.6-3.1,25.3-10.5c3.1-3.4,5.8-7,9.2-11.3c0,5.4,0.1,9.9,0,14.4
				c-0.1,2.9,1.1,3.4,3.6,2.8c5.7-1.3,11.4-2.6,17.1-3.4c4.1-0.5,5.1-2.2,5.1-6.1c-0.1-12.5-0.2-25,0.3-37.5
				c0.3-8.1,3.7-15.4,10.4-20.2c2.3-1.6,6.5-2.3,9.1-1.3c1.9,0.7,3.6,4.6,3.8,7.2c0.6,5.4,0.2,11,0.2,16.5c0.1,8.7-0.2,17.3,0.4,26
				c1,14.5,11.7,21.9,25.8,18.2c7-1.8,11.9-6.6,15.8-12.3c1.6-2.3,2.3-3.1,4.2,0c10.2,16.9,30,17.9,42.2,2.2c1.8-2.3,3.4-4.6,5.8-8
				c0,3.7-0.2,6,0,8.3c0.5,4.4-1,7.2-4.9,9.7c-5.8,3.8-11.1,8.5-16.2,13.2c-4.8,4.4-7.6,10-8.5,16.6c-1.3,10,5.1,17.6,15.1,18.4
				c13.9,1.1,23.7-5.2,30.8-16.4c6.3-9.8,9.4-20.9,8.8-32.3c-0.5-9.7,3.3-15.8,10.6-21.3c3.3-2.5,3.9-1.7,5.2,1.6
				c5.9,15.5,20.2,23.4,36.7,20.7c13.6-2.2,23.7-9.9,32.3-20.2c1.9-2.2,3.6-4.6,6.3-8.1c0,4-0.2,6.6,0,9.1
				c1.7,17.8,17.9,25.5,32.7,15.4c3.7-2.6,6.9-6.3,9.6-10c2.4-3.3,3.2-3,5.2,0.2c4.5,7.6,11.4,11.8,20.1,13.3
				c16,2.6,29.3-3,39.4-14.6c8.7-10,15.7-21.4,23.1-32.4c2.8-4.1,4.6-8.8,7.1-13.2c0.3-0.5,2.5-0.8,2.7-0.5
				c6.8,10.1,11.6,20.9,11.7,33.4c0,7-0.6,7.5-7.2,5.5c-8-2.4-16.2-4.4-24.4-0.7c-4.8,2.2-7.7,5.8-7.8,11.2c0,5.2,2.8,8.8,7.4,10.9
				c1.6,0.8,3.4,1.5,5.1,1.9c12.4,2.3,24.6,1.4,36-4.2c3.1-1.5,5.3-1.1,8.4-0.2c7.5,2.2,15,4.6,22.7,5.3
				c12.4,1.1,23.8-8.6,25.9-20.9c0.2-1.3-0.5-2.8-0.8-4.2c-1.1,0.7-2.6,1.1-3.3,2c-5.2,6.8-12.1,9-20.3,7.9c-3-0.4-6-0.6-8.9-1.1
				c-2.8-0.5-6.6-0.3-8-2c-1.2-1.4,0.3-5.2,0.7-7.9c1.4-11.2-1.9-20.9-9.8-28.7c-6.3-6.2-13.1-11.8-19.8-17.6c-2-1.7-2.1-2.9-1-5.4
				c1.9-4.2,3.5-8.7,4.1-13.2c0.7-5.3-2.8-8-8.1-7.1c-5.8,0.9-10.6,6-10.7,12.1c-0.1,3.6,1.1,7.1,1.6,10.7c0.2,1.5,0.8,3.5,0.2,4.6
				c-7.5,13.1-14.8,26.4-23.1,39c-3.2,4.9-8.5,9.1-13.7,12c-12.7,7-22.8,2.4-26.9-11.5c-0.7-2.4-1.1-4.9-1.7-7.3
				c-0.8-3.1,0.5-4.3,3.6-5c6.3-1.5,12.6-3.1,18.6-5.5c6.6-2.6,12.3-6.7,15.9-13.1c7.6-13.2,1.4-27.3-13.5-30
				c-15.3-2.8-28,2.3-38.2,13.6c-12.7,14.1-16.1,30.9-12.7,49.4c0.9,4.9-4.8,11.5-10.2,11.9c-4.4,0.4-6.7-2.5-6.8-9
				c-0.1-10.3-0.1-20.7,0-31c0-1.9,0.7-3.9,1.7-5.6C812.1,99,820.9,75,824.9,49.2c1.7-11,2.7-22.2-0.5-33.2
				c-4.1-14.1-17.5-19.7-30.4-12.6c-6.6,3.6-10.6,9.5-13.7,16.1c-5.4,11.7-7.8,24.1-8,36.8c-0.5,27.6-0.4,55.3-0.7,82.9
				c0,2.1,0.2,4.9-1,6.2c-5.5,6.4-10.7,13.5-17.5,18.2c-13,8.9-25.7,3.5-30.1-11.6c-0.6-1.9-0.9-3.9-1.4-5.8
				c-0.9-3.3,0.2-4.6,3.6-5.4c6.7-1.7,13.8-3.2,19.9-6.3c5.3-2.7,10.6-6.8,13.9-11.6c8.9-12.8,2.2-27.8-13-30.7
				c-11.6-2.2-22.2,0.6-31.5,7.7c-13.4,10.3-20.4,24.4-20.2,41c0.1,7.4-2.5,11.8-7.8,15.7c-0.4,0.3-0.7,0.7-1.1,1
				c-1.1,0.7-2.2,1.3-3.2,2c-0.2-1.2-0.5-2.5-0.5-3.7c0-19.7-0.1-39.3,0.1-59c0-4.4-1.2-4.9-4.7-2.9c-4.7,2.8-8.9,2.9-14.3,0.6
				c-16.5-6.9-33.4-2.8-45.6,10.4c-13.2,14.3-16.4,31.5-13.6,50.2c0.8,5.4-2.1,10.5-7.2,12.5c-3.9,1.5-6.7,0.3-7.7-3.7
				c-0.6-2.5-0.8-5.3-0.9-7.9c-0.1-15.5,0.2-31-0.3-46.5c-0.4-14.7-10.1-21.3-24.1-16.8c-8.5,2.7-14.5,8.6-19.7,15.5
				C542,110.4,540.6,112.6,539.1,114.7z M164,159.1c0.9,1.4,1.7,2.5,2.4,3.6c9.1,13.8,22.1,20.6,38.5,19.7
				c16.6-0.9,28.6-9.3,35.7-24.2c2.1-4.5,3.1-9.4,4.9-14.1c0.5-1.3,1.6-3.1,2.7-3.4c11.1-2.4,18.9-8.8,23.6-19
				c1-2.2,2.1-2.5,3.2-0.2c3,6.1,6.6,12,8.7,18.4c1.8,5.2,2,11.1,2.4,16.7c0.3,3.7-0.8,5.9-5.5,4c-3.6-1.5-7.7-2.2-11.6-2.8
				c-5.9-1-11.7-0.5-16.8,3c-7.3,5.1-7.2,14.9,0.2,19.6c2.2,1.4,4.8,2.5,7.3,3c12.6,2.3,24.8,1.1,36.6-4.4c1.9-0.9,4.7-0.8,6.9-0.3
				c6.3,1.5,12.4,3.9,18.7,5.1c17.3,3.3,25.9-6.5,30.5-20.4c0.4-1.3-0.5-3-0.8-4.5c-1.1,0.7-2.4,1.3-3.2,2.2
				c-3.8,4.5-8.3,8.2-14.4,7.9c-7.3-0.4-14.5-1.7-21.8-2.5c-2.4-0.3-2.4-1.2-1.8-3.3c4.1-13,0.8-24.4-8.6-33.9
				c-5.7-5.8-12.1-10.9-18.3-16.2c-2.8-2.4-4.3-4.5-1.7-8.2c1.6-2.4,2.8-5.5,2.9-8.4c0.1-3.2-0.3-8.5-2-9.2
				c-2.9-1.2-7.5-0.5-10.5,1.1c-6,3.2-7.4,10.5-4.9,18.7c0.6,1.8,1.5,4.1,1,5.6c-2.5,6.8-6.5,12.8-13.1,16.4
				c-7.6,4.2-8.8,3.7-10.8-4.7c-4.8-19.8-20.8-32.8-41-33.1c-20.9-0.3-37.7,11.7-42.3,31.7c-1.8,7.7-1.1,16.1-0.7,24.2
				c0.1,3.3-0.2,5.1-3.2,6.7c-7.2,3.8-14.8,5.8-22.7,4.6c-17.6-2.5-35.1-5.8-52.6-8.7c-2.9-0.5-3-1.9-2.1-4.1
				c7.7-20.4,9.2-41.8,9.9-63.3c0.5-14.6,0.3-29.4,2.2-43.8c1.9-14.6,8.8-26.9,24.7-30.5c10.5-2.3,21-0.8,30.4,4.7
				c13.9,8,14.2,24.9,0.6,33.4c-2,1.3-2.3,2-0.5,3.5c3.5,3.1,6.7,6.5,10.4,9.3c0.9,0.7,3.8,0.6,4.4-0.2c3.1-3.8,6.6-7.7,8.4-12.2
				c5.7-13.9,1.3-27.6-11.3-36.5c-15.6-11.1-33.3-12-51.2-8.7C73.7,8,52.8,34.2,54.3,68.8c0.5,11.6,2.4,23.1,3.6,34.7
				c1.3,12.4,2.4,24.8,3.6,37.2c0.3,3.2-0.7,4-3.9,3c-4.7-1.5-9.6-2.7-14.5-3.7c-10.3-2.1-20.5-2.7-30.2,2.5
				c-9.9,5.4-13.8,14-12.6,25c1,10,7.3,15.7,16.3,18.1c19.2,5.1,36.8,2,50.6-13.3c3.4-3.8,5.7-3.8,9.9-1.8
				c11.6,5.4,23,11.5,35.2,15.3c20.5,6.4,35.1,0.2,46.5-17.9C160.5,165.1,162.1,162.2,164,159.1z"/>
		</g>
		<g>
			<path class="st1" d="M539.1,114.7c1.5-2.1,2.9-4.3,4.4-6.4c5.2-6.9,11.2-12.8,19.7-15.5c14-4.5,23.7,2.1,24.1,16.8
				c0.4,15.5,0.1,31,0.3,46.5c0,2.6,0.2,5.4,0.9,7.9c1,4,3.8,5.2,7.7,3.7c5.1-2,8-7.1,7.2-12.5c-2.8-18.7,0.4-35.9,13.6-50.2
				c12.1-13.2,29.1-17.3,45.6-10.4c5.4,2.3,9.7,2.2,14.3-0.6c3.4-2,4.7-1.5,4.7,2.9c-0.2,19.6-0.1,39.3-0.1,59
				c0,1.2,0.4,2.5,0.5,3.7c1.1-0.7,2.2-1.3,3.2-2c0.4-0.3,0.7-0.7,1.1-1c5.3-3.9,7.9-8.3,7.8-15.7c-0.2-16.7,6.8-30.7,20.2-41
				c9.3-7.1,19.9-9.9,31.5-7.7c15.3,2.9,22,17.9,13,30.7c-3.4,4.8-8.6,8.9-13.9,11.6c-6.1,3.1-13.1,4.6-19.9,6.3
				c-3.4,0.8-4.5,2.2-3.6,5.4c0.5,1.9,0.9,3.9,1.4,5.8c4.4,15.1,17.1,20.5,30.1,11.6c6.8-4.7,11.9-11.8,17.5-18.2
				c1.2-1.4,1-4.1,1-6.2c0.2-27.6,0.1-55.3,0.7-82.9c0.2-12.7,2.6-25.2,8-36.8c3-6.6,7.1-12.5,13.7-16.1
				c12.8-7.1,26.3-1.6,30.4,12.6c3.2,11,2.2,22.2,0.5,33.2c-4,25.8-12.8,49.8-25.8,72.5c-0.9,1.6-1.7,3.7-1.7,5.6
				c-0.2,10.3-0.1,20.6,0,31c0.1,6.4,2.4,9.3,6.8,9c5.4-0.5,11.1-7.1,10.2-11.9c-3.4-18.4,0-35.2,12.7-49.4
				c10.1-11.3,22.9-16.4,38.2-13.6c14.9,2.7,21.2,16.8,13.5,30c-3.7,6.4-9.3,10.5-15.9,13.1c-6,2.4-12.3,4-18.6,5.5
				c-3.1,0.7-4.4,1.9-3.6,5c0.6,2.4,1,4.9,1.7,7.3c4.1,13.9,14.2,18.5,26.9,11.5c5.2-2.9,10.5-7.1,13.7-12
				c8.3-12.6,15.6-25.9,23.1-39c0.6-1.1,0.1-3.1-0.2-4.6c-0.5-3.6-1.7-7.2-1.6-10.7c0.1-6.1,4.9-11.1,10.7-12.1
				c5.3-0.9,8.8,1.8,8.1,7.1c-0.6,4.5-2.2,9-4.1,13.2c-1.1,2.5-1,3.7,1,5.4c6.7,5.8,13.5,11.4,19.8,17.6c7.9,7.8,11.3,17.5,9.8,28.7
				c-0.3,2.7-1.9,6.5-0.7,7.9c1.4,1.7,5.2,1.5,8,2c3,0.5,6,0.7,8.9,1.1c8.2,1.1,15.1-1.1,20.3-7.9c0.7-1,2.2-1.4,3.3-2
				c0.3,1.4,1,2.9,0.8,4.2c-2.1,12.3-13.5,22.1-25.9,20.9c-7.7-0.7-15.2-3.1-22.7-5.3c-3-0.9-5.3-1.3-8.4,0.2
				c-11.4,5.6-23.6,6.5-36,4.2c-1.8-0.3-3.5-1.1-5.1-1.9c-4.6-2.2-7.4-5.7-7.4-10.9c0-5.4,3-9.1,7.8-11.2c8.2-3.7,16.3-1.7,24.4,0.7
				c6.6,2,7.2,1.5,7.2-5.5c-0.1-12.5-4.9-23.3-11.7-33.4c-0.2-0.3-2.4-0.1-2.7,0.5c-2.5,4.3-4.3,9.1-7.1,13.2
				c-7.4,11-14.4,22.5-23.1,32.4c-10.1,11.6-23.5,17.2-39.4,14.6c-8.8-1.4-15.6-5.7-20.1-13.3c-1.9-3.3-2.8-3.5-5.2-0.2
				c-2.7,3.7-5.9,7.4-9.6,10c-14.8,10.1-31,2.4-32.7-15.4c-0.2-2.6,0-5.2,0-9.1c-2.7,3.5-4.4,5.9-6.3,8.1
				c-8.6,10.2-18.7,17.9-32.3,20.2c-16.5,2.7-30.8-5.2-36.7-20.7c-1.3-3.3-1.9-4-5.2-1.6c-7.3,5.4-11.1,11.6-10.6,21.3
				c0.6,11.4-2.6,22.5-8.8,32.3c-7.1,11.2-17,17.6-30.8,16.4c-10-0.8-16.4-8.5-15.1-18.4c0.8-6.6,3.7-12.2,8.5-16.6
				c5.1-4.7,10.5-9.3,16.2-13.2c3.9-2.6,5.4-5.3,4.9-9.7c-0.3-2.3,0-4.6,0-8.3c-2.4,3.3-4,5.7-5.8,8c-12.2,15.6-32,14.7-42.2-2.2
				c-1.9-3.1-2.6-2.3-4.2,0c-4,5.7-8.8,10.5-15.8,12.3c-14.1,3.7-24.8-3.7-25.8-18.2c-0.6-8.6-0.3-17.3-0.4-26
				c0-5.5,0.4-11-0.2-16.5c-0.3-2.6-1.9-6.5-3.8-7.2c-2.6-0.9-6.8-0.3-9.1,1.3c-6.7,4.8-10.1,12-10.4,20.2
				c-0.5,12.5-0.4,25-0.3,37.5c0,3.9-1,5.6-5.1,6.1c-5.8,0.7-11.4,2.1-17.1,3.4c-2.5,0.6-3.7,0.1-3.6-2.8c0.2-4.5,0-8.9,0-14.4
				c-3.5,4.3-6.2,8-9.2,11.3c-6.7,7.4-15,11.3-25.3,10.5c-10.3-0.8-17.7-5.6-21.8-15c-2.3-5.3-3.7-10.9-5.7-17.1
				c-1.1,2-2,3.6-2.9,5.3c-13,23-36.5,32.8-61.7,25.7c-17.1-4.8-27.2-16.7-32.4-33.1c-14.8-46.6,7.2-108.2,48.3-134.5
				c26-16.6,54.4-21.8,84.7-15.5c9.5,2,17.8,6.7,24.1,14.2c10.3,12.3,9,30.7-2.9,41.5c-2.2,2-3.8,2.7-6.2,0.2
				c-3-3.1-6.5-5.8-9.5-8.8c-0.5-0.5-0.1-2.7,0.4-3c7.5-3.4,10.7-9.3,10.1-17.2c-0.5-8.2-5.5-13.6-12.5-16.7
				c-17.2-7.6-34.7-7-52-0.5c-16.6,6.2-28.8,18-37.3,33.2c-16.5,29.6-20,61.3-14.1,94.3c0.2,1.1,0.6,2.3,0.9,3.4
				c5.2,17.3,17.2,24.4,34.8,20.9c17.2-3.5,28.2-16.7,28.3-34.3c0.1-27.3,0.1-54.6-0.1-81.9c0-4.2,1.4-5.8,5.3-6.6
				c7.5-1.6,14.9-3.6,22.2-5.8c4.3-1.3,5.3-0.2,5.3,4.2c-0.2,36-0.1,71.9-0.1,107.9c0,3.8,0,7.7,0.5,11.5c1.2,9,7.8,12.4,15.5,7.5
				c8.1-5.1,14.1-11.5,13.5-22.5c-0.8-13.8-0.1-27.6-0.3-41.5c0-3.1,1-4.4,4-5.1c5.5-1.2,11.1-2.4,16.4-4.2c4.9-1.7,5.7,0.3,5.5,4.5
				c-0.2,5.5-0.1,11.1-0.1,16.6C538.4,114.6,538.7,114.6,539.1,114.7z M656,127.5c0-7.3-0.2-14.6,0.1-21.9c0.1-3.4-1.4-5.1-4.4-6.3
				c-8.2-3.1-14.6-0.3-18.1,8.9c-5.3,13.6-5.7,27.9-4.5,42.2c0.3,3.3,1,6.6,2.2,9.6c2.7,6.9,9.4,9,15.4,4.4c5.7-4.3,10-9.5,9.5-17.6
				C655.6,140.5,656,134,656,127.5z M797.3,109.9c13.6-27.5,19.4-56.5,17.5-86.8c-0.2-4.1-1.4-8.2-3.1-11.9
				c-0.8-1.8-3.8-3.6-5.8-3.6c-1.7,0-4.1,2.2-5,4c-1.4,2.9-2.4,6.3-2.5,9.6c-0.6,17.3-0.9,34.6-1.1,51.9
				C797.2,85.4,797.3,97.6,797.3,109.9z M720,129.2c0.6,7.1,1.1,7.8,7.2,4.9c5-2.4,10-5.4,14-9.2c5.8-5.5,7.1-12.9,5.1-20.7
				c-1.2-4.8-4.3-6.9-9.2-6.6c-5,0.3-8.1,3.6-9.6,7.6C724.6,113,722.5,121.2,720,129.2z M866,109.6c-0.2-1.2-0.3-3.3-0.8-5.4
				c-1.6-6.4-8.4-9-13.8-5c-1.9,1.4-3.7,3.5-4.8,5.6c-4.9,8.8-6,18.6-6.5,28.4c0,0.7,1.4,2.1,2.2,2.1
				C853.3,135,865.9,121.9,866,109.6z M656.9,199.4c-0.5-5.2-0.9-9.1-1.2-12.9c-3.1,2.6-6.3,5.3-9.4,7.9c-0.4,0.3-0.7,0.7-1,1.1
				c-4.9,5.6-8.1,11.8-7.4,19.5c0.5,4.4,2,8.1,7.3,8.7c5.2,0.5,8-2.4,9-6.8C655.5,210.8,656.1,204.5,656.9,199.4z M900.8,164
				c-2.4,1.9-5.3,3.6-7.1,6c-0.6,0.8,1.5,4.6,3.2,5.6c5.1,3.2,15.3,1.3,19.6-2.8c1.7-1.6,1.7-2.7-0.5-3.5
				C911.3,167.6,906.7,166,900.8,164z"/>
		</g>
		<g>
			<path class="st0" d="M656,127.5c0,6.5-0.3,13,0.1,19.4c0.5,8-3.8,13.2-9.5,17.6c-5.9,4.5-12.6,2.5-15.4-4.4c-1.2-3-2-6.4-2.2-9.6
				c-1.1-14.3-0.7-28.6,4.5-42.2c3.6-9.2,9.9-12,18.1-8.9c3,1.1,4.5,2.9,4.4,6.3C655.8,112.9,656,120.2,656,127.5z"/>
		</g>
		<g>
			<path class="st0" d="M797.3,109.9c0-12.3-0.1-24.5,0-36.8c0.2-17.3,0.5-34.6,1.1-51.9c0.1-3.2,1.1-6.6,2.5-9.6c0.9-1.8,3.3-4,5-4
				c2,0,5,1.8,5.8,3.6c1.7,3.7,2.9,7.9,3.1,11.9C816.7,53.4,811,82.4,797.3,109.9z"/>
		</g>
		<g>
			<path class="st0" d="M720,129.2c2.5-8,4.6-16.2,7.5-24c1.5-4,4.6-7.3,9.6-7.6c4.8-0.3,7.9,1.8,9.2,6.6c2,7.8,0.7,15.2-5.1,20.7
				c-4,3.8-9,6.8-14,9.2C721.1,137,720.6,136.3,720,129.2z"/>
		</g>
		<g>
			<path class="st0" d="M866,109.6c-0.1,12.2-12.7,25.4-23.8,25.7c-0.7,0-2.2-1.4-2.2-2.1c0.5-9.8,1.6-19.6,6.5-28.4
				c1.2-2.1,2.9-4.2,4.8-5.6c5.3-3.9,12.2-1.3,13.8,5C865.7,106.3,865.8,108.5,866,109.6z"/>
		</g>
		<g>
			<path class="st0" d="M656.9,199.4c-0.8,5-1.4,11.3-2.8,17.4c-1,4.4-3.8,7.4-9,6.8c-5.3-0.5-6.8-4.3-7.3-8.7
				c-0.8-7.7,2.5-13.9,7.4-19.5c0.3-0.4,0.6-0.8,1-1.1c3.1-2.7,6.3-5.3,9.4-7.9C656,190.4,656.4,194.2,656.9,199.4z"/>
		</g>
		<g>
			<path class="st0" d="M900.8,164c5.9,2.1,10.6,3.7,15.2,5.3c2.2,0.8,2.2,1.9,0.5,3.5c-4.3,4.1-14.5,6-19.6,2.8
				c-1.7-1-3.7-4.8-3.2-5.6C895.4,167.5,898.4,165.9,900.8,164z"/>
		</g>
		<g>
			<path class="st0" d="M220.4,137.3c-1,7.6-1.8,15-3.1,22.3c-0.5,2.7-1.7,5.4-3,7.8c-5.8,10.1-18.4,10.2-23.5-0.2
				c-2.6-5.2-4.4-11.4-4.5-17.1c-0.3-11.7-0.1-23.6,1.4-35.2c1.4-10.7,7.5-16.1,14.9-16c7.1,0.1,12.5,5.3,14.7,15.8
				C219,122.1,219.5,129.8,220.4,137.3z"/>
		</g>
		<path class="st1" d="M351.5,159.1c-1.1,0.7-2.4,1.3-3.2,2.2c-3.8,4.5-8.3,8.2-14.4,7.9c-7.3-0.4-14.5-1.7-21.8-2.5
			c-2.4-0.3-2.4-1.2-1.8-3.3c4.1-13,0.8-24.4-8.6-33.9c-5.7-5.8-12.1-10.9-18.3-16.2c-2.8-2.4-4.3-4.5-1.7-8.2
			c1.6-2.4,2.8-5.5,2.9-8.4c0.1-3.2-0.3-8.5-2-9.2c-2.9-1.2-7.5-0.5-10.5,1.1c-6,3.2-7.4,10.5-4.9,18.7c0.6,1.8,1.5,4.1,1,5.6
			c-2.5,6.8-6.5,12.8-13.1,16.4c-7.6,4.2-8.8,3.7-10.8-4.7c-4.8-19.8-20.8-32.8-41-33.1c-20.9-0.3-37.7,11.7-42.3,31.7
			c-1.8,7.7-1.1,16.1-0.7,24.2c0.1,3.3-0.2,5.1-3.2,6.7c-7.2,3.8-14.8,5.8-22.7,4.6c-17.6-2.5-35.1-5.8-52.6-8.7
			c-2.9-0.5-3-1.9-2.1-4.1c7.7-20.4,9.2-41.8,9.9-63.3c0.5-14.6,0.3-29.4,2.2-43.8c1.9-14.6,8.8-26.9,24.7-30.5
			c10.5-2.3,21-0.8,30.4,4.7c13.9,8,14.2,24.9,0.6,33.4c-2,1.3-2.3,2-0.5,3.5c3.5,3.1,6.7,6.5,10.4,9.3c0.9,0.7,3.8,0.6,4.4-0.2
			c3.1-3.8,6.6-7.7,8.4-12.2c5.7-13.9,1.3-27.6-11.3-36.5c-15.6-11.1-33.3-12-51.2-8.7C73.7,8,52.8,34.2,54.3,68.8
			c0.5,11.6,2.4,23.1,3.6,34.7c1.3,12.4,2.4,24.8,3.6,37.2c0.3,3.2-0.7,4-3.9,3c-4.7-1.5-9.6-2.7-14.5-3.7
			c-10.3-2.1-20.5-2.7-30.2,2.5c-9.9,5.4-13.8,14-12.6,25c1,10,7.3,15.7,16.3,18.1c19.2,5.1,36.8,2,50.6-13.3
			c3.4-3.8,5.7-3.8,9.9-1.8c11.6,5.4,23,11.5,35.2,15.3c20.5,6.4,35.1,0.2,46.5-17.9c1.8-2.8,3.4-5.6,5.3-8.8
			c0.9,1.4,1.7,2.5,2.4,3.6c9.1,13.8,22.1,20.6,38.5,19.7c16.6-0.9,28.6-9.3,35.7-24.2c2.1-4.5,3.1-9.4,4.9-14.1
			c0.5-1.3,1.6-3.1,2.7-3.4c11.1-2.4,18.9-8.8,23.6-19c1-2.2,2.1-2.5,3.2-0.2c3,6.1,6.6,12,8.7,18.4c1.8,5.2,2,11.1,2.4,16.7
			c0.3,3.7-0.8,5.9-5.5,4c-3.6-1.5-7.7-2.2-11.6-2.8c-5.9-1-11.7-0.5-16.8,3c-7.3,5.1-7.2,14.9,0.2,19.6c2.2,1.4,4.8,2.5,7.3,3
			c12.6,2.3,24.8,1.1,36.6-4.4c1.9-0.9,4.7-0.8,6.9-0.3c6.3,1.5,12.4,3.9,18.7,5.1c17.3,3.3,25.9-6.5,30.5-20.4
			C352.8,162.4,351.9,160.6,351.5,159.1z M56.6,162c-5.7,9.5-14.2,14.7-25.7,15c-1.2-0.1-2.7-0.2-4.2-0.4c-7.1-0.8-11.1-4.2-11.9-10
			c-0.7-5.8,2.7-10.9,9.3-13c11.4-3.5,22-0.3,32.3,4.5C57,158.3,57.2,161,56.6,162z M217.4,159.6c-0.5,2.7-1.7,5.4-3,7.8
			c-5.8,10.1-18.4,10.2-23.5-0.2c-2.6-5.2-4.4-11.4-4.5-17.1c-0.3-11.7-0.1-23.6,1.4-35.2c1.4-10.7,7.5-16.1,14.9-16
			c7.1,0.1,12.5,5.3,14.7,15.8c1.6,7.4,2.1,15.1,3,22.6C219.4,144.9,218.6,152.3,217.4,159.6z M278.3,172.9
			c-3.9,1.9-8.1,3.5-12.1,5.1c-6.9-0.8-11-3.5-10.7-7.7c0.3-4,4.2-6.1,10.7-5c4,0.7,7.9,2.4,11.7,3.7
			C280.7,170.2,280.4,171.9,278.3,172.9z"/>
		<g>
			<path class="st0" d="M266.2,178.1c-6.9-0.8-11-3.5-10.7-7.7c0.3-4,4.2-6.1,10.7-5c4,0.7,7.9,2.4,11.7,3.7
				c2.7,0.9,2.4,2.7,0.3,3.7C274.4,174.9,270.2,176.4,266.2,178.1z"/>
		</g>
	</g>
	<g>
		<path class="st2" d="M747.9,217.9l0.1-1l1.4-0.2c0.5-0.1,0.6-1,0.5-5l-0.3-8.4h-0.2l-4.9,14.1h-1.8l-4.6-13.5h-0.3l-0.4,7.8
			c-0.2,4.7-0.2,5,0.3,5.1l1.5,0.2l0.1,1h-5.7l0.1-1l1.4-0.2c0.5-0.1,0.8-0.4,1.1-5.1l0.3-6.7c0.1-1.2-0.3-1.8-1.1-2l-1.5-0.3
			l-0.1-1h6.5l4,11.8h0.2l4-11.8h6.3l-0.1,1l-1.7,0.1c-0.4,0.1-0.6,0.4-0.6,0.8l0.3,8.2c0.1,4.3,0.3,4.9,0.9,5l1.4,0.2l0.1,1H747.9z
			"/>
		<path class="st2" d="M773.7,217.9l0.1-1l1.1-0.2c1-0.2,1-0.6,0.3-2.7l-0.5-1.7h-5.4l-0.5,1.5c-0.7,2-0.7,2.8,0.2,2.9l1,0.2l0.1,1
			h-5.7l0.1-1l0.7-0.2c1.1-0.3,1.5-0.6,3.1-5.1l3-8.4v-1l2.8-1l4.9,14.7c0.1,0.4,0.5,0.7,1,0.8l1.2,0.3l0.1,1H773.7z M772.2,204.3
			H772l-2.3,6.8h4.6L772.2,204.3z"/>
		<path class="st2" d="M807.5,211.6l-1,0.1c-0.7,0.1-0.9,0.2-0.9,0.5v3.8l1.6,0.2l0.1,0.7c-2,0.8-5,1.4-7.5,1.4
			c-5.3,0-9.1-3.1-9.1-8.3c0-5.5,4.3-8.7,9.4-8.7c1.6,0,3,0.3,3.7,0.6l2.2-0.5v5.5h-1.6l-0.9-3.5c-0.9-0.5-2-0.9-3.5-0.9
			c-3.5,0-6,3-6,7.1c0,4.6,2.1,7.6,6,7.6c1,0,2.2-0.3,2.9-0.6v-4.4c0-0.3-0.2-0.4-0.9-0.4l-1.2-0.1l-0.1-1h7.1L807.5,211.6z"/>
		<path class="st2" d="M826,217.9l0.1-1l1.1-0.2c1-0.2,1-0.6,0.3-2.7l-0.5-1.7h-5.4l-0.5,1.5c-0.7,2-0.7,2.8,0.2,2.9l1,0.2l0.1,1
			h-5.7l0.1-1l0.7-0.2c1.1-0.3,1.5-0.6,3.1-5.1l3-8.4v-1l2.8-1l4.9,14.7c0.1,0.4,0.5,0.7,1,0.8l1.2,0.3l0.1,1H826z M824.4,204.3
			h-0.2l-2.3,6.8h4.6L824.4,204.3z"/>
		<path class="st2" d="M856.1,217.9h-13.2v-1.1l10-14v-0.1H850c-3.7,0-4.1,0.4-4.6,2l-0.5,2.1h-1.4v-5.2h12.9v1.1l-10.1,14l0,0.1
			l3.2,0c4.1,0,4.5-0.5,5-1.9l0.6-2.1h1.6L856.1,217.9z"/>
		<path class="st2" d="M867.1,217.9l0.1-1l1.3-0.1c0.7-0.1,0.9-0.2,0.9-0.5v-13.2c0-0.2-0.2-0.3-1-0.4l-1.2-0.1l-0.1-1h7.5l-0.1,1
			l-1.3,0.1c-0.7,0.1-0.9,0.2-0.9,0.5v13.2c0,0.3,0.2,0.4,0.9,0.4l1.2,0.1l0.1,1H867.1z"/>
		<path class="st2" d="M903,202.6l-1.2,0.3c-0.9,0.2-1.1,0.4-1.1,5.2v10.1h-1.8l-9.8-13.4h-0.2v6.8c0,4.7,0.2,5,1.1,5.2l1.3,0.3
			l0.1,1h-6l0.1-1l1.2-0.3c0.9-0.2,1.1-0.4,1.1-5.2V205c0-1.2-0.4-1.8-1-2.1l-1.2-0.3l-0.1-1h5l8.9,12.3h0.2v-5.9
			c0-4.7-0.2-5-1.1-5.2l-1.3-0.3l-0.1-1h6.1L903,202.6z"/>
		<path class="st2" d="M927,217.9h-13.4l0.1-1l1-0.1c0.7-0.1,0.9-0.2,0.9-0.5v-13.2c0-0.2-0.2-0.3-1-0.4l-1-0.1l-0.1-1H927v5.1h-1.5
			l-0.6-2.3c-0.4-1.5-0.9-1.7-5.4-1.7h-1.1v6.4h0.7c1.7,0,2.2-0.1,2.5-0.7l0.6-1.7h1.2l-0.6,5.9h-1.1l-0.2-1.6
			c-0.1-0.6-0.3-0.8-2.4-0.8h-0.6v6.6h1c4.7,0,5.2-0.2,5.7-1.7l0.6-2.2h1.6L927,217.9z"/>
	</g>
</g>
</svg>
