<?xml version="1.0" encoding="utf-8"?>
<!-- Generator: Adobe Illustrator 24.3.0, SVG Export Plug-In . SVG Version: 6.00 Build 0)  -->
<svg version="1.1" id="Layer_1" xmlns="http://www.w3.org/2000/svg" xmlns:xlink="http://www.w3.org/1999/xlink" x="0px" y="0px"
	 viewBox="0 0 169.2 18.6" style="enable-background:new 0 0 169.2 18.6;" xml:space="preserve">
<style type="text/css">
	.st0{fill-rule:evenodd;clip-rule:evenodd;fill:#343537;}
</style>
<g>
	<path class="st0" d="M3.8,7.6V4h4.1c1.6,0,2.6,0.7,2.6,1.9c0,1.1-1.1,1.8-2.7,1.8H3.8L3.8,7.6z M0,18.3h3.8v-6.8h4l2.7,6.8h4.1
		l-3-7.6l0.1-0.1c1.5-1.1,2.5-3,2.5-4.8c0-3.4-2.5-5.6-6.1-5.6H0V18.3L0,18.3z"/>
	<polygon class="st0" points="17.8,0.1 31.1,0.1 31.1,4 21.7,4 21.7,6.7 26.8,6.7 26.8,10.5 21.7,10.5 21.7,14.6 31.3,14.6 
		31.3,18.3 17.8,18.3 17.8,0.1 	"/>
	<path class="st0" d="M40.4,10.5L42.3,6l1.9,4.5H40.4L40.4,10.5z M37.1,18.3l1.8-4h6.8l1.8,4h4L44,0.1h-3.1l-7.6,18.2H37.1
		L37.1,18.3z"/>
	<polygon class="st0" points="54.1,0.1 58,0.1 58,14.6 67.6,14.6 67.6,18.3 54.1,18.3 54.1,0.1 	"/>
	<path class="st0" d="M74.2,12.2c1.8,2.2,2.9,2.7,4.6,2.7c1.9,0,3.3-0.8,3.3-2c0-1-0.8-1.5-3.1-2c-3.3-0.8-4.5-1.5-5.5-2.9
		c-0.4-0.8-0.7-1.6-0.7-2.6c0-3.1,2.5-5.3,6-5.3c2.6,0,5.3,1.4,7,3.6L83,5.9c-1.9-1.6-2.7-2-4.4-2c-1.4,0-2.2,0.5-2.2,1.4
		c0,0.8,0.5,1.2,2,1.5c0.4,0.1,1,0.3,1.6,0.5l2.3,0.7c1.9,0.7,3.3,2.6,3.3,4.8c0,3.4-2.9,5.9-6.7,5.9c-2,0-4.2-0.8-5.6-1.9
		c-0.5-0.4-1.1-1.1-1.9-1.9c-0.3-0.1-0.3-0.3-0.5-0.5L74.2,12.2L74.2,12.2z"/>
	<polygon class="st0" points="90.3,0.1 94.1,0.1 94.1,18.3 90.3,18.3 90.3,0.1 	"/>
	<polygon class="st0" points="99.4,0.1 103,0.1 107.5,10 112.1,0.1 115.9,0.1 115.9,18.3 112.1,18.3 112.1,9.1 107.5,18.3 
		103.1,9.3 103.1,18.3 99.4,18.3 99.4,0.1 	"/>
	<path class="st0" d="M125.2,7.6V4h4.6c1.5,0,2.3,0.7,2.3,1.9c0,1.1-1,1.8-2.5,1.8H125.2L125.2,7.6z M121.4,18.3h4v-6.8h4.5
		c3.6,0,6.1-2.3,6.1-5.6c0-3.4-2.5-5.7-6.1-5.7h-8.5V18.3L121.4,18.3z"/>
	<polygon class="st0" points="139.3,0.1 143.3,0.1 143.3,14.6 152.8,14.6 152.8,18.3 139.3,18.3 139.3,0.1 	"/>
	<polygon class="st0" points="155.7,0.1 168.9,0.1 168.9,4 159.5,4 159.5,6.7 164.7,6.7 164.7,10.5 159.5,10.5 159.5,14.6 
		169.2,14.6 169.2,18.3 155.7,18.3 155.7,0.1 	"/>
</g>
</svg>
